<?xml version="1.0" encoding="utf-8"?>
<!-- Generator: Adobe Illustrator 21.0.0, SVG Export Plug-In . SVG Version: 6.00 Build 0)  -->
<svg version="1.0" id="Layer_1" xmlns="http://www.w3.org/2000/svg" xmlns:xlink="http://www.w3.org/1999/xlink" x="0px" y="0px"
	 viewBox="0 0 80.5 13.1" style="enable-background:new 0 0 80.5 13.1;" xml:space="preserve">
<g>
	<path d="M7.4,0l5.9,12.8h-3.1L8.6,9.4H3.7l-1.6,3.4H0L6.1,0H7.4z M4.3,8.2h3.8l-1.9-4L4.3,8.2z"/>
	<path d="M17.5,0.3h5.4c0.7,0,1.4,0.1,2,0.2s1.1,0.4,1.5,0.7s0.8,0.6,1,1s0.4,0.8,0.4,1.3c0,0.3,0,0.6-0.1,0.8S27.5,4.8,27.4,5
		s-0.3,0.4-0.6,0.6s-0.5,0.4-0.9,0.6c0.4,0.1,0.7,0.3,1,0.5s0.6,0.4,0.8,0.7s0.4,0.5,0.5,0.9s0.2,0.7,0.2,1c0,0.5-0.1,1-0.3,1.4
		s-0.5,0.8-1,1.1s-0.9,0.6-1.5,0.7s-1.2,0.3-1.9,0.3h-6.2V0.3z M20.6,5.7h2c0.3,0,0.6-0.1,0.9-0.2s0.5-0.2,0.6-0.4s0.3-0.4,0.4-0.6
		s0.1-0.5,0.1-0.8c0-0.3-0.1-0.6-0.2-0.9S24.2,2.2,24,2.1s-0.5-0.3-0.9-0.5s-0.8-0.2-1.3-0.2h-1.2V5.7z M20.6,11.5h1.7
		c0.5,0,0.9-0.1,1.3-0.2s0.7-0.3,0.9-0.4s0.4-0.4,0.5-0.7s0.2-0.5,0.2-0.9c0-0.4-0.1-0.7-0.2-1s-0.3-0.6-0.5-0.8S24,7.2,23.6,7.1
		s-0.9-0.2-1.4-0.2h-1.6V11.5z"/>
	<path d="M40.2,13.1c-0.7,0-1.3-0.1-1.9-0.2s-1.2-0.4-1.7-0.6s-1-0.6-1.4-1s-0.8-0.8-1.1-1.3s-0.5-1-0.7-1.6S33,7.1,33,6.4
		c0-0.6,0.1-1.2,0.3-1.8s0.4-1.1,0.7-1.6s0.7-0.9,1.1-1.3s0.9-0.7,1.4-1s1.1-0.5,1.7-0.6S39.5,0,40.2,0s1.3,0.1,1.9,0.2
		s1.2,0.3,1.7,0.6s1,0.6,1.4,1s0.8,0.8,1.1,1.3s0.5,1,0.7,1.6s0.3,1.2,0.3,1.8c0,0.7-0.1,1.3-0.3,1.9s-0.4,1.1-0.7,1.6
		s-0.7,0.9-1.1,1.3s-0.9,0.7-1.4,1s-1.1,0.5-1.7,0.6S40.9,13.1,40.2,13.1z M40.2,12c0.6,0,1.1-0.1,1.6-0.4s0.9-0.7,1.2-1.2
		s0.6-1.1,0.7-1.8s0.2-1.4,0.2-2.2c0-0.8-0.1-1.5-0.2-2.2S43.3,3,43,2.6s-0.7-0.8-1.2-1.1s-1-0.4-1.6-0.4c-0.6,0-1.2,0.1-1.6,0.4
		s-0.9,0.6-1.2,1.1s-0.6,1-0.7,1.7s-0.2,1.4-0.2,2.2c0,0.8,0.1,1.5,0.2,2.2s0.4,1.3,0.7,1.8s0.7,0.9,1.2,1.2S39.6,12,40.2,12z"/>
	<path d="M52.4,0.3h3.1v8c0,0.5,0.1,0.9,0.2,1.4s0.4,0.8,0.6,1.1s0.6,0.6,1,0.8s0.8,0.3,1.3,0.3s0.9-0.1,1.3-0.3s0.7-0.4,1-0.8
		s0.5-0.7,0.6-1.1S62,8.8,62,8.3v-8h1.9v8c0,0.6-0.1,1.3-0.3,1.8s-0.6,1.1-1,1.5s-1.1,0.8-1.8,1s-1.6,0.4-2.6,0.4
		c-0.9,0-1.7-0.1-2.4-0.4s-1.3-0.6-1.8-1s-0.8-0.9-1.1-1.5s-0.4-1.2-0.4-1.8V0.3z"/>
	<path d="M80.5,0.3v1.1h-4.3v11.5h-3.1V1.3h-4.3V0.3H80.5z"/>
</g>
<g>
	<path d="M134.9,0.3v1.1h-4.3v11.5h-3.1V1.3h-4.3V0.3H134.9z"/>
	<path d="M139.9,0.3h3.1v12.5h-3.1V0.3z"/>
	<path d="M148.9,0.3h3l4.3,8.6l4.3-8.6h2.9v12.5h-3.1V4.6l-4.1,8.2h-1.2l-4.2-8.3v8.3h-1.9V0.3z"/>
	<path d="M178.5,0.3v1.1h-6.3v4.1h5.2v1.1h-5.2v5h6.3v1.3h-9.3V0.3H178.5z"/>
	<path d="M194.6,0.3v1.1h-4.3v11.5h-3.1V1.3h-4.3V0.3H194.6z"/>
	<path d="M204.1,0l5.9,12.8h-3.1l-1.6-3.4h-4.9l-1.6,3.4h-2.1L202.8,0H204.1z M201,8.2h3.8l-1.9-4L201,8.2z"/>
	<path d="M214.3,0.3h5.4c0.7,0,1.4,0.1,2,0.2s1.1,0.4,1.5,0.7s0.8,0.6,1,1s0.4,0.8,0.4,1.3c0,0.3,0,0.6-0.1,0.8s-0.2,0.5-0.3,0.7
		s-0.3,0.4-0.6,0.6s-0.5,0.4-0.9,0.6c0.4,0.1,0.7,0.3,1,0.5s0.6,0.4,0.8,0.7s0.4,0.5,0.5,0.9s0.2,0.7,0.2,1c0,0.5-0.1,1-0.3,1.4
		s-0.5,0.8-1,1.1s-0.9,0.6-1.5,0.7s-1.2,0.3-1.9,0.3h-6.2V0.3z M217.3,5.7h2c0.3,0,0.6-0.1,0.9-0.2s0.5-0.2,0.6-0.4s0.3-0.4,0.4-0.6
		s0.1-0.5,0.1-0.8c0-0.3-0.1-0.6-0.2-0.9s-0.3-0.5-0.5-0.7s-0.5-0.3-0.9-0.5s-0.8-0.2-1.3-0.2h-1.2V5.7z M217.3,11.5h1.7
		c0.5,0,0.9-0.1,1.3-0.2s0.7-0.3,0.9-0.4s0.4-0.4,0.5-0.7s0.2-0.5,0.2-0.9c0-0.4-0.1-0.7-0.2-1s-0.3-0.6-0.5-0.8s-0.5-0.4-0.9-0.5
		s-0.9-0.2-1.4-0.2h-1.6V11.5z"/>
	<path d="M230.4,0.3h3.1v11.2h6.4v1.3h-9.5V0.3z"/>
	<path d="M253.9,0.3v1.1h-6.3v4.1h5.2v1.1h-5.2v5h6.3v1.3h-9.3V0.3H253.9z"/>
</g>
<g>
	<path d="M104.2-3.9h1.4l-6.9,21.7h-1.4L104.2-3.9z"/>
</g>
<g>
	<path d="M459-3.9h1.4l-6.9,21.7h-1.4L459-3.9z"/>
</g>
<g>
	<path d="M283.7-3.9h1.4l-6.9,21.7h-1.4L283.7-3.9z"/>
</g>
<g>
	<path d="M309.5,0.3h3.1v11.2h6.4v1.3h-9.5V0.3z"/>
	<path d="M330.2,13.1c-0.7,0-1.3-0.1-1.9-0.2s-1.2-0.4-1.7-0.6s-1-0.6-1.4-1s-0.8-0.8-1.1-1.3s-0.5-1-0.7-1.6S323,7.1,323,6.4
		c0-0.6,0.1-1.2,0.3-1.8s0.4-1.1,0.7-1.6s0.7-0.9,1.1-1.3s0.9-0.7,1.4-1s1.1-0.5,1.7-0.6s1.3-0.2,1.9-0.2s1.3,0.1,1.9,0.2
		s1.2,0.3,1.7,0.6s1,0.6,1.4,1s0.8,0.8,1.1,1.3s0.5,1,0.7,1.6s0.3,1.2,0.3,1.8c0,0.7-0.1,1.3-0.3,1.9s-0.4,1.1-0.7,1.6
		s-0.7,0.9-1.1,1.3s-0.9,0.7-1.4,1s-1.1,0.5-1.7,0.6S330.8,13.1,330.2,13.1z M330.2,12c0.6,0,1.1-0.1,1.6-0.4s0.9-0.7,1.2-1.2
		s0.6-1.1,0.7-1.8s0.2-1.4,0.2-2.2c0-0.8-0.1-1.5-0.2-2.2s-0.4-1.2-0.7-1.7s-0.7-0.8-1.2-1.1s-1-0.4-1.6-0.4c-0.6,0-1.2,0.1-1.6,0.4
		s-0.9,0.6-1.2,1.1s-0.6,1-0.7,1.7s-0.2,1.4-0.2,2.2c0,0.8,0.1,1.5,0.2,2.2s0.4,1.3,0.7,1.8s0.7,0.9,1.2,1.2S329.5,12,330.2,12z"/>
	<path d="M345.3,6.5c0,0.8,0.1,1.5,0.4,2.1s0.6,1.1,1,1.6s0.9,0.7,1.4,1s1.1,0.3,1.6,0.3c0.4,0,0.8-0.1,1.2-0.2s0.7-0.4,1.1-0.6
		s0.6-0.6,0.9-0.9s0.6-0.7,0.8-1.1l1.3,0.9c-0.3,0.4-0.6,0.9-1,1.3s-0.8,0.8-1.3,1.1s-1,0.6-1.6,0.8s-1.2,0.3-1.8,0.3
		c-1.1,0-2.1-0.2-3-0.5s-1.7-0.8-2.3-1.3s-1.2-1.3-1.5-2.1s-0.6-1.7-0.6-2.7c0-0.6,0.1-1.2,0.2-1.8s0.4-1.1,0.7-1.6s0.7-0.9,1.1-1.3
		s0.9-0.7,1.4-1s1.1-0.5,1.8-0.6s1.3-0.2,2-0.2c0.7,0,1.4,0.1,2,0.3s1.1,0.4,1.6,0.7s0.9,0.7,1.3,1.1s0.7,0.9,1,1.4l-1.3,0.9
		c-0.3-0.4-0.5-0.7-0.9-1.1s-0.6-0.6-1-0.9s-0.7-0.4-1.1-0.6s-0.8-0.2-1.2-0.2c-0.6,0-1.1,0.1-1.6,0.3s-1,0.5-1.4,1
		s-0.7,0.9-0.9,1.6S345.3,5.7,345.3,6.5z"/>
	<path d="M366.2,0l5.9,12.8h-3.1l-1.6-3.4h-4.9l-1.6,3.4h-2.1L364.9,0H366.2z M363.1,8.2h3.8l-1.9-4L363.1,8.2z"/>
	<path d="M385.9,0.3v1.1h-4.3v11.5h-3.1V1.3h-4.3V0.3H385.9z"/>
	<path d="M390.9,0.3h3.1v12.5h-3.1V0.3z"/>
	<path d="M406.4,13.1c-0.7,0-1.3-0.1-1.9-0.2s-1.2-0.4-1.7-0.6s-1-0.6-1.4-1s-0.8-0.8-1.1-1.3s-0.5-1-0.7-1.6s-0.3-1.2-0.3-1.8
		c0-0.6,0.1-1.2,0.3-1.8s0.4-1.1,0.7-1.6s0.7-0.9,1.1-1.3s0.9-0.7,1.4-1s1.1-0.5,1.7-0.6s1.3-0.2,1.9-0.2s1.3,0.1,1.9,0.2
		s1.2,0.3,1.7,0.6s1,0.6,1.4,1s0.8,0.8,1.1,1.3s0.5,1,0.7,1.6s0.3,1.2,0.3,1.8c0,0.7-0.1,1.3-0.3,1.9s-0.4,1.1-0.7,1.6
		s-0.7,0.9-1.1,1.3s-0.9,0.7-1.4,1s-1.1,0.5-1.7,0.6S407.1,13.1,406.4,13.1z M406.4,12c0.6,0,1.1-0.1,1.6-0.4s0.9-0.7,1.2-1.2
		s0.6-1.1,0.7-1.8s0.2-1.4,0.2-2.2c0-0.8-0.1-1.5-0.2-2.2s-0.4-1.2-0.7-1.7s-0.7-0.8-1.2-1.1s-1-0.4-1.6-0.4c-0.6,0-1.2,0.1-1.6,0.4
		s-0.9,0.6-1.2,1.1s-0.6,1-0.7,1.7s-0.2,1.4-0.2,2.2c0,0.8,0.1,1.5,0.2,2.2s0.4,1.3,0.7,1.8s0.7,0.9,1.2,1.2S405.8,12,406.4,12z"/>
	<path d="M418.6,0.3h2l7.1,8v-8h1.9V13h-1.3l-7.8-8.8v8.6h-1.9V0.3z"/>
</g>
<g>
	<path d="M480.4,6.5c0,0.8,0.1,1.5,0.4,2.1s0.6,1.1,1,1.6s0.9,0.7,1.4,1s1.1,0.3,1.6,0.3c0.4,0,0.8-0.1,1.2-0.2s0.7-0.4,1.1-0.6
		s0.6-0.6,0.9-0.9s0.6-0.7,0.8-1.1l1.3,0.9c-0.3,0.4-0.6,0.9-1,1.3s-0.8,0.8-1.3,1.1s-1,0.6-1.6,0.8s-1.2,0.3-1.8,0.3
		c-1.1,0-2.1-0.2-3-0.5s-1.7-0.8-2.3-1.3s-1.2-1.3-1.5-2.1S477,7.5,477,6.5c0-0.6,0.1-1.2,0.2-1.8s0.4-1.1,0.7-1.6s0.7-0.9,1.1-1.3
		s0.9-0.7,1.4-1s1.1-0.5,1.8-0.6s1.3-0.2,2-0.2c0.7,0,1.4,0.1,2,0.3s1.1,0.4,1.6,0.7s0.9,0.7,1.3,1.1s0.7,0.9,1,1.4l-1.3,0.9
		c-0.3-0.4-0.5-0.7-0.9-1.1s-0.6-0.6-1-0.9s-0.7-0.4-1.1-0.6s-0.8-0.2-1.2-0.2c-0.6,0-1.1,0.1-1.6,0.3s-1,0.5-1.4,1
		s-0.7,0.9-0.9,1.6S480.4,5.7,480.4,6.5z"/>
	<path d="M501.9,13.1c-0.7,0-1.3-0.1-1.9-0.2s-1.2-0.4-1.7-0.6s-1-0.6-1.4-1s-0.8-0.8-1.1-1.3s-0.5-1-0.7-1.6s-0.3-1.2-0.3-1.8
		c0-0.6,0.1-1.2,0.3-1.8s0.4-1.1,0.7-1.6s0.7-0.9,1.1-1.3s0.9-0.7,1.4-1s1.1-0.5,1.7-0.6s1.3-0.2,1.9-0.2s1.3,0.1,1.9,0.2
		s1.2,0.3,1.7,0.6s1,0.6,1.4,1s0.8,0.8,1.1,1.3s0.5,1,0.7,1.6s0.3,1.2,0.3,1.8c0,0.7-0.1,1.3-0.3,1.9s-0.4,1.1-0.7,1.6
		s-0.7,0.9-1.1,1.3s-0.9,0.7-1.4,1s-1.1,0.5-1.7,0.6S502.6,13.1,501.9,13.1z M501.9,12c0.6,0,1.1-0.1,1.6-0.4s0.9-0.7,1.2-1.2
		s0.6-1.1,0.7-1.8s0.2-1.4,0.2-2.2c0-0.8-0.1-1.5-0.2-2.2S505,3,504.7,2.6s-0.7-0.8-1.2-1.1s-1-0.4-1.6-0.4c-0.6,0-1.2,0.1-1.6,0.4
		s-0.9,0.6-1.2,1.1s-0.6,1-0.7,1.7s-0.2,1.4-0.2,2.2c0,0.8,0.1,1.5,0.2,2.2s0.4,1.3,0.7,1.8s0.7,0.9,1.2,1.2S501.3,12,501.9,12z"/>
	<path d="M514.2,0.3h2l7.1,8v-8h1.9V13h-1.3l-7.8-8.8v8.6h-1.9V0.3z"/>
	<path d="M541.8,0.3v1.1h-4.3v11.5h-3.1V1.3h-4.3V0.3H541.8z"/>
	<path d="M551.3,0l5.9,12.8h-3.1l-1.6-3.4h-4.9l-1.6,3.4h-2.1L550,0H551.3z M548.2,8.2h3.8l-1.9-4L548.2,8.2z"/>
	<path d="M563.6,6.5c0,0.8,0.1,1.5,0.4,2.1s0.6,1.1,1,1.6s0.9,0.7,1.4,1s1.1,0.3,1.6,0.3c0.4,0,0.8-0.1,1.2-0.2s0.7-0.4,1.1-0.6
		s0.6-0.6,0.9-0.9s0.6-0.7,0.8-1.1l1.3,0.9c-0.3,0.4-0.6,0.9-1,1.3s-0.8,0.8-1.3,1.1s-1,0.6-1.6,0.8s-1.2,0.3-1.8,0.3
		c-1.1,0-2.1-0.2-3-0.5s-1.7-0.8-2.3-1.3s-1.2-1.3-1.5-2.1s-0.6-1.7-0.6-2.7c0-0.6,0.1-1.2,0.2-1.8s0.4-1.1,0.7-1.6s0.7-0.9,1.1-1.3
		s0.9-0.7,1.4-1s1.1-0.5,1.8-0.6s1.3-0.2,2-0.2c0.7,0,1.4,0.1,2,0.3s1.1,0.4,1.6,0.7s0.9,0.7,1.3,1.1s0.7,0.9,1,1.4l-1.3,0.9
		c-0.3-0.4-0.5-0.7-0.9-1.1s-0.6-0.6-1-0.9s-0.7-0.4-1.1-0.6s-0.8-0.2-1.2-0.2c-0.6,0-1.1,0.1-1.6,0.3s-1,0.5-1.4,1
		s-0.7,0.9-0.9,1.6S563.6,5.7,563.6,6.5z"/>
	<path d="M589.4,0.3v1.1h-4.3v11.5H582V1.3h-4.3V0.3H589.4z"/>
</g>
</svg>
