<?xml version="1.0" encoding="utf-8"?>
<!-- Generator: Adobe Illustrator 21.0.0, SVG Export Plug-In . SVG Version: 6.00 Build 0)  -->
<svg version="1.0" id="Layer_1" xmlns="http://www.w3.org/2000/svg" xmlns:xlink="http://www.w3.org/1999/xlink" x="0px" y="0px"
	 viewBox="0 0 112.4 13.1" style="enable-background:new 0 0 112.4 13.1;" xml:space="preserve">
<g>
	<path d="M-469.6,0l5.9,12.8h-3.1l-1.6-3.4h-4.9l-1.6,3.4h-2.1l6.1-12.8H-469.6z M-472.7,8.2h3.8l-1.9-4L-472.7,8.2z"/>
	<path d="M-459.5,0.3h5.4c0.7,0,1.4,0.1,2,0.2s1.1,0.4,1.5,0.7s0.8,0.6,1,1s0.4,0.8,0.4,1.3c0,0.3,0,0.6-0.1,0.8s-0.2,0.5-0.3,0.7
		s-0.3,0.4-0.6,0.6s-0.5,0.4-0.9,0.6c0.4,0.1,0.7,0.3,1,0.5s0.6,0.4,0.8,0.7s0.4,0.5,0.5,0.9s0.2,0.7,0.2,1c0,0.5-0.1,1-0.3,1.4
		s-0.5,0.8-1,1.1s-0.9,0.6-1.5,0.7s-1.2,0.3-1.9,0.3h-6.2V0.3z M-456.4,5.7h2c0.3,0,0.6-0.1,0.9-0.2s0.5-0.2,0.6-0.4
		s0.3-0.4,0.4-0.6s0.1-0.5,0.1-0.8c0-0.3-0.1-0.6-0.2-0.9s-0.3-0.5-0.5-0.7s-0.5-0.3-0.9-0.5s-0.8-0.2-1.3-0.2h-1.2V5.7z
		 M-456.4,11.5h1.7c0.5,0,0.9-0.1,1.3-0.2s0.7-0.3,0.9-0.4s0.4-0.4,0.5-0.7s0.2-0.5,0.2-0.9c0-0.4-0.1-0.7-0.2-1s-0.3-0.6-0.5-0.8
		s-0.5-0.4-0.9-0.5s-0.9-0.2-1.4-0.2h-1.6V11.5z"/>
	<path d="M-436.8,13.1c-0.7,0-1.3-0.1-1.9-0.2s-1.2-0.4-1.7-0.6s-1-0.6-1.4-1s-0.8-0.8-1.1-1.3s-0.5-1-0.7-1.6s-0.3-1.2-0.3-1.8
		c0-0.6,0.1-1.2,0.3-1.8s0.4-1.1,0.7-1.6s0.7-0.9,1.1-1.3s0.9-0.7,1.4-1s1.1-0.5,1.7-0.6s1.3-0.2,1.9-0.2s1.3,0.1,1.9,0.2
		s1.2,0.3,1.7,0.6s1,0.6,1.4,1s0.8,0.8,1.1,1.3s0.5,1,0.7,1.6s0.3,1.2,0.3,1.8c0,0.7-0.1,1.3-0.3,1.9s-0.4,1.1-0.7,1.6
		s-0.7,0.9-1.1,1.3s-0.9,0.7-1.4,1s-1.1,0.5-1.7,0.6S-436.1,13.1-436.8,13.1z M-436.8,12c0.6,0,1.1-0.1,1.6-0.4s0.9-0.7,1.2-1.2
		s0.6-1.1,0.7-1.8s0.2-1.4,0.2-2.2c0-0.8-0.1-1.5-0.2-2.2s-0.4-1.2-0.7-1.7s-0.7-0.8-1.2-1.1s-1-0.4-1.6-0.4c-0.6,0-1.2,0.1-1.6,0.4
		s-0.9,0.6-1.2,1.1s-0.6,1-0.7,1.7s-0.2,1.4-0.2,2.2c0,0.8,0.1,1.5,0.2,2.2s0.4,1.3,0.7,1.8s0.7,0.9,1.2,1.2S-437.4,12-436.8,12z"/>
	<path d="M-424.6,0.3h3.1v8c0,0.5,0.1,0.9,0.2,1.4s0.4,0.8,0.6,1.1s0.6,0.6,1,0.8s0.8,0.3,1.3,0.3s0.9-0.1,1.3-0.3s0.7-0.4,1-0.8
		s0.5-0.7,0.6-1.1s0.2-0.9,0.2-1.4v-8h1.9v8c0,0.6-0.1,1.3-0.3,1.8s-0.6,1.1-1,1.5s-1.1,0.8-1.8,1s-1.6,0.4-2.6,0.4
		c-0.9,0-1.7-0.1-2.4-0.4s-1.3-0.6-1.8-1s-0.8-0.9-1.1-1.5s-0.4-1.2-0.4-1.8V0.3z"/>
	<path d="M-396.5,0.3v1.1h-4.3v11.5h-3.1V1.4h-4.3V0.3H-396.5z"/>
</g>
<g>
	<path d="M-342.1,0.3v1.1h-4.3v11.5h-3.1V1.4h-4.3V0.3H-342.1z"/>
	<path d="M-337.1,0.3h3.1v12.5h-3.1V0.3z"/>
	<path d="M-328.1,0.3h3l4.3,8.6l4.3-8.6h2.9v12.5h-3.1V4.7l-4.1,8.2h-1.2l-4.2-8.3v8.3h-1.9V0.3z"/>
	<path d="M-298.5,0.3v1.1h-6.3v4.1h5.2v1.1h-5.2v5h6.3v1.3h-9.3V0.3H-298.5z"/>
	<path d="M-282.4,0.3v1.1h-4.3v11.5h-3.1V1.4h-4.3V0.3H-282.4z"/>
	<path d="M-272.9,0l5.9,12.8h-3.1l-1.6-3.4h-4.9l-1.6,3.4h-2.1l6.1-12.8H-272.9z M-276,8.2h3.8l-1.9-4L-276,8.2z"/>
	<path d="M-262.8,0.3h5.4c0.7,0,1.4,0.1,2,0.2s1.1,0.4,1.5,0.7s0.8,0.6,1,1s0.4,0.8,0.4,1.3c0,0.3,0,0.6-0.1,0.8s-0.2,0.5-0.3,0.7
		s-0.3,0.4-0.6,0.6s-0.5,0.4-0.9,0.6c0.4,0.1,0.7,0.3,1,0.5s0.6,0.4,0.8,0.7s0.4,0.5,0.5,0.9s0.2,0.7,0.2,1c0,0.5-0.1,1-0.3,1.4
		s-0.5,0.8-1,1.1s-0.9,0.6-1.5,0.7s-1.2,0.3-1.9,0.3h-6.2V0.3z M-259.7,5.7h2c0.3,0,0.6-0.1,0.9-0.2s0.5-0.2,0.6-0.4
		s0.3-0.4,0.4-0.6s0.1-0.5,0.1-0.8c0-0.3-0.1-0.6-0.2-0.9s-0.3-0.5-0.5-0.7s-0.5-0.3-0.9-0.5s-0.8-0.2-1.3-0.2h-1.2V5.7z
		 M-259.7,11.5h1.7c0.5,0,0.9-0.1,1.3-0.2s0.7-0.3,0.9-0.4s0.4-0.4,0.5-0.7s0.2-0.5,0.2-0.9c0-0.4-0.1-0.7-0.2-1s-0.3-0.6-0.5-0.8
		s-0.5-0.4-0.9-0.5s-0.9-0.2-1.4-0.2h-1.6V11.5z"/>
	<path d="M-246.6,0.3h3.1v11.2h6.4v1.3h-9.5V0.3z"/>
	<path d="M-223.1,0.3v1.1h-6.3v4.1h5.2v1.1h-5.2v5h6.3v1.3h-9.3V0.3H-223.1z"/>
</g>
<g>
	<path d="M-372.8-3.9h1.4l-6.9,21.7h-1.4L-372.8-3.9z"/>
</g>
<g>
	<path d="M-18-3.9h1.4l-6.9,21.7h-1.4L-18-3.9z"/>
</g>
<g>
	<path d="M-193.3-3.9h1.4l-6.9,21.7h-1.4L-193.3-3.9z"/>
</g>
<g>
	<path d="M-167.5,0.3h3.1v11.2h6.4v1.3h-9.5V0.3z"/>
	<path d="M-146.8,13.1c-0.7,0-1.3-0.1-1.9-0.2s-1.2-0.4-1.7-0.6s-1-0.6-1.4-1s-0.8-0.8-1.1-1.3s-0.5-1-0.7-1.6s-0.3-1.2-0.3-1.8
		c0-0.6,0.1-1.2,0.3-1.8s0.4-1.1,0.7-1.6s0.7-0.9,1.1-1.3s0.9-0.7,1.4-1s1.1-0.5,1.7-0.6s1.3-0.2,1.9-0.2s1.3,0.1,1.9,0.2
		s1.2,0.3,1.7,0.6s1,0.6,1.4,1s0.8,0.8,1.1,1.3s0.5,1,0.7,1.6s0.3,1.2,0.3,1.8c0,0.7-0.1,1.3-0.3,1.9s-0.4,1.1-0.7,1.6
		s-0.7,0.9-1.1,1.3s-0.9,0.7-1.4,1s-1.1,0.5-1.7,0.6S-146.2,13.1-146.8,13.1z M-146.8,12c0.6,0,1.1-0.1,1.6-0.4s0.9-0.7,1.2-1.2
		s0.6-1.1,0.7-1.8s0.2-1.4,0.2-2.2c0-0.8-0.1-1.5-0.2-2.2s-0.4-1.2-0.7-1.7s-0.7-0.8-1.2-1.1s-1-0.4-1.6-0.4c-0.6,0-1.2,0.1-1.6,0.4
		s-0.9,0.6-1.2,1.1s-0.6,1-0.7,1.7s-0.2,1.4-0.2,2.2c0,0.8,0.1,1.5,0.2,2.2s0.4,1.3,0.7,1.8s0.7,0.9,1.2,1.2S-147.5,12-146.8,12z"/>
	<path d="M-131.7,6.6c0,0.8,0.1,1.5,0.4,2.1s0.6,1.1,1,1.6s0.9,0.7,1.4,1s1.1,0.3,1.6,0.3c0.4,0,0.8-0.1,1.2-0.2s0.7-0.4,1.1-0.6
		s0.6-0.6,0.9-0.9s0.6-0.7,0.8-1.1l1.3,0.9c-0.3,0.4-0.6,0.9-1,1.3s-0.8,0.8-1.3,1.1s-1,0.6-1.6,0.8s-1.2,0.3-1.8,0.3
		c-1.1,0-2.1-0.2-3-0.5s-1.7-0.8-2.3-1.3s-1.2-1.3-1.5-2.1s-0.6-1.7-0.6-2.7c0-0.6,0.1-1.2,0.2-1.8s0.4-1.1,0.7-1.6s0.7-0.9,1.1-1.3
		s0.9-0.7,1.4-1s1.1-0.5,1.8-0.6s1.3-0.2,2-0.2c0.7,0,1.4,0.1,2,0.3s1.1,0.4,1.6,0.7s0.9,0.7,1.3,1.1s0.7,0.9,1,1.4l-1.3,0.9
		c-0.3-0.4-0.5-0.7-0.9-1.1s-0.6-0.6-1-0.9s-0.7-0.4-1.1-0.6s-0.8-0.2-1.2-0.2c-0.6,0-1.1,0.1-1.6,0.3s-1,0.5-1.4,1
		s-0.7,0.9-0.9,1.6S-131.7,5.7-131.7,6.6z"/>
	<path d="M-110.8,0l5.9,12.8h-3.1l-1.6-3.4h-4.9l-1.6,3.4h-2.1l6.1-12.8H-110.8z M-113.9,8.2h3.8l-1.9-4L-113.9,8.2z"/>
	<path d="M-91.1,0.3v1.1h-4.3v11.5h-3.1V1.4h-4.3V0.3H-91.1z"/>
	<path d="M-86.1,0.3h3.1v12.5h-3.1V0.3z"/>
	<path d="M-70.6,13.1c-0.7,0-1.3-0.1-1.9-0.2s-1.2-0.4-1.7-0.6s-1-0.6-1.4-1s-0.8-0.8-1.1-1.3s-0.5-1-0.7-1.6s-0.3-1.2-0.3-1.8
		c0-0.6,0.1-1.2,0.3-1.8s0.4-1.1,0.7-1.6s0.7-0.9,1.1-1.3s0.9-0.7,1.4-1s1.1-0.5,1.7-0.6S-71.3,0-70.6,0s1.3,0.1,1.9,0.2
		s1.2,0.3,1.7,0.6s1,0.6,1.4,1s0.8,0.8,1.1,1.3s0.5,1,0.7,1.6s0.3,1.2,0.3,1.8c0,0.7-0.1,1.3-0.3,1.9s-0.4,1.1-0.7,1.6
		s-0.7,0.9-1.1,1.3s-0.9,0.7-1.4,1s-1.1,0.5-1.7,0.6S-70,13.1-70.6,13.1z M-70.6,12c0.6,0,1.1-0.1,1.6-0.4s0.9-0.7,1.2-1.2
		s0.6-1.1,0.7-1.8s0.2-1.4,0.2-2.2c0-0.8-0.1-1.5-0.2-2.2s-0.4-1.2-0.7-1.7s-0.7-0.8-1.2-1.1s-1-0.4-1.6-0.4c-0.6,0-1.2,0.1-1.6,0.4
		s-0.9,0.6-1.2,1.1s-0.6,1-0.7,1.7s-0.2,1.4-0.2,2.2c0,0.8,0.1,1.5,0.2,2.2s0.4,1.3,0.7,1.8s0.7,0.9,1.2,1.2S-71.2,12-70.6,12z"/>
	<path d="M-58.4,0.3h2l7.1,8v-8h1.9V13h-1.3l-7.8-8.8v8.6h-1.9V0.3z"/>
</g>
<g>
	<path d="M3.4,6.6c0,0.8,0.1,1.5,0.4,2.1s0.6,1.1,1,1.6s0.9,0.7,1.4,1s1.1,0.3,1.6,0.3c0.4,0,0.8-0.1,1.2-0.2s0.7-0.4,1.1-0.6
		s0.6-0.6,0.9-0.9s0.6-0.7,0.8-1.1l1.3,0.9c-0.3,0.4-0.6,0.9-1,1.3s-0.8,0.8-1.3,1.1s-1,0.6-1.6,0.8s-1.2,0.3-1.8,0.3
		c-1.1,0-2.1-0.2-3-0.5s-1.7-0.8-2.3-1.3S0.9,10,0.6,9.2S0,7.5,0,6.6c0-0.6,0.1-1.2,0.2-1.8s0.4-1.1,0.7-1.6S1.6,2.2,2,1.9
		s0.9-0.7,1.4-1s1.1-0.5,1.8-0.6S6.5,0,7.2,0c0.7,0,1.4,0.1,2,0.3s1.1,0.4,1.6,0.7s0.9,0.7,1.3,1.1s0.7,0.9,1,1.4l-1.3,0.9
		c-0.3-0.4-0.5-0.7-0.9-1.1s-0.6-0.6-1-0.9S9.3,1.9,8.9,1.8S8.1,1.6,7.7,1.6c-0.6,0-1.1,0.1-1.6,0.3s-1,0.5-1.4,1S4,3.8,3.8,4.4
		S3.4,5.7,3.4,6.6z"/>
	<path d="M24.9,13.1c-0.7,0-1.3-0.1-1.9-0.2s-1.2-0.4-1.7-0.6s-1-0.6-1.4-1s-0.8-0.8-1.1-1.3s-0.5-1-0.7-1.6s-0.3-1.2-0.3-1.8
		c0-0.6,0.1-1.2,0.3-1.8s0.4-1.1,0.7-1.6s0.7-0.9,1.1-1.3s0.9-0.7,1.4-1s1.1-0.5,1.7-0.6S24.2,0,24.9,0s1.3,0.1,1.9,0.2
		s1.2,0.3,1.7,0.6s1,0.6,1.4,1s0.8,0.8,1.1,1.3s0.5,1,0.7,1.6S32,5.8,32,6.5c0,0.7-0.1,1.3-0.3,1.9s-0.4,1.1-0.7,1.6
		s-0.7,0.9-1.1,1.3s-0.9,0.7-1.4,1s-1.1,0.5-1.7,0.6S25.6,13.1,24.9,13.1z M24.9,12c0.6,0,1.1-0.1,1.6-0.4s0.9-0.7,1.2-1.2
		s0.6-1.1,0.7-1.8s0.2-1.4,0.2-2.2c0-0.8-0.1-1.5-0.2-2.2S28,3.1,27.7,2.6S27,1.8,26.5,1.5s-1-0.4-1.6-0.4c-0.6,0-1.2,0.1-1.6,0.4
		s-0.9,0.6-1.2,1.1s-0.6,1-0.7,1.7s-0.2,1.4-0.2,2.2c0,0.8,0.1,1.5,0.2,2.2s0.4,1.3,0.7,1.8s0.7,0.9,1.2,1.2S24.3,12,24.9,12z"/>
	<path d="M37.2,0.3h2l7.1,8v-8h1.9V13h-1.3l-7.8-8.8v8.6h-1.9V0.3z"/>
	<path d="M64.8,0.3v1.1h-4.3v11.5h-3.1V1.4h-4.3V0.3H64.8z"/>
	<path d="M74.3,0l5.9,12.8h-3.1l-1.6-3.4h-4.9L69,12.8h-2.1L73,0H74.3z M71.2,8.2H75l-1.9-4L71.2,8.2z"/>
	<path d="M86.6,6.6c0,0.8,0.1,1.5,0.4,2.1s0.6,1.1,1,1.6s0.9,0.7,1.4,1s1.1,0.3,1.6,0.3c0.4,0,0.8-0.1,1.2-0.2s0.7-0.4,1.1-0.6
		s0.6-0.6,0.9-0.9s0.6-0.7,0.8-1.1l1.3,0.9c-0.3,0.4-0.6,0.9-1,1.3s-0.8,0.8-1.3,1.1s-1,0.6-1.6,0.8s-1.2,0.3-1.8,0.3
		c-1.1,0-2.1-0.2-3-0.5s-1.7-0.8-2.3-1.3s-1.2-1.3-1.5-2.1s-0.6-1.7-0.6-2.7c0-0.6,0.1-1.2,0.2-1.8s0.4-1.1,0.7-1.6s0.7-0.9,1.1-1.3
		s0.9-0.7,1.4-1s1.1-0.5,1.8-0.6s1.3-0.2,2-0.2c0.7,0,1.4,0.1,2,0.3S93.5,0.7,94,1S95,1.6,95.3,2s0.7,0.9,1,1.4l-1.3,0.9
		c-0.3-0.4-0.5-0.7-0.9-1.1s-0.6-0.6-1-0.9s-0.7-0.4-1.1-0.6s-0.8-0.2-1.2-0.2c-0.6,0-1.1,0.1-1.6,0.3s-1,0.5-1.4,1
		s-0.7,0.9-0.9,1.6S86.6,5.7,86.6,6.6z"/>
	<path d="M112.4,0.3v1.1h-4.3v11.5H105V1.4h-4.3V0.3H112.4z"/>
</g>
</svg>
