<?xml version="1.0" encoding="utf-8"?>
<!-- Generator: Adobe Illustrator 21.0.0, SVG Export Plug-In . SVG Version: 6.00 Build 0)  -->
<svg version="1.0" id="Layer_1" xmlns="http://www.w3.org/2000/svg" xmlns:xlink="http://www.w3.org/1999/xlink" x="0px" y="0px"
	 viewBox="0 0 120.1 13.1" style="enable-background:new 0 0 120.1 13.1;" xml:space="preserve">
<g>
	<path d="M-302.1,0l5.9,12.8h-3.1l-1.6-3.4h-4.9l-1.6,3.4h-2.1l6.1-12.8H-302.1z M-305.2,8.2h3.8l-1.9-4L-305.2,8.2z"/>
	<path d="M-292,0.3h5.4c0.7,0,1.4,0.1,2,0.2s1.1,0.4,1.5,0.7s0.8,0.6,1,1s0.4,0.8,0.4,1.3c0,0.3,0,0.6-0.1,0.8s-0.2,0.5-0.3,0.7
		s-0.3,0.4-0.6,0.6s-0.5,0.4-0.9,0.6c0.4,0.1,0.7,0.3,1,0.5s0.6,0.4,0.8,0.7s0.4,0.5,0.5,0.9s0.2,0.7,0.2,1c0,0.5-0.1,1-0.3,1.4
		s-0.5,0.8-1,1.1s-0.9,0.6-1.5,0.7s-1.2,0.3-1.9,0.3h-6.2V0.3z M-288.9,5.7h2c0.3,0,0.6-0.1,0.9-0.2s0.5-0.2,0.6-0.4
		s0.3-0.4,0.4-0.6s0.1-0.5,0.1-0.8c0-0.3-0.1-0.6-0.2-0.9s-0.3-0.5-0.5-0.7s-0.5-0.3-0.9-0.5s-0.8-0.2-1.3-0.2h-1.2V5.7z
		 M-288.9,11.5h1.7c0.5,0,0.9-0.1,1.3-0.2s0.7-0.3,0.9-0.4s0.4-0.4,0.5-0.7s0.2-0.5,0.2-0.9c0-0.4-0.1-0.7-0.2-1s-0.3-0.6-0.5-0.8
		s-0.5-0.4-0.9-0.5s-0.9-0.2-1.4-0.2h-1.6V11.5z"/>
	<path d="M-269.4,13.1c-0.7,0-1.3-0.1-1.9-0.2s-1.2-0.4-1.7-0.6s-1-0.6-1.4-1s-0.8-0.8-1.1-1.3s-0.5-1-0.7-1.6s-0.3-1.2-0.3-1.8
		c0-0.6,0.1-1.2,0.3-1.8s0.4-1.1,0.7-1.6s0.7-0.9,1.1-1.3s0.9-0.7,1.4-1s1.1-0.5,1.7-0.6S-270,0-269.4,0s1.3,0.1,1.9,0.2
		s1.2,0.3,1.7,0.6s1,0.6,1.4,1s0.8,0.8,1.1,1.3s0.5,1,0.7,1.6s0.3,1.2,0.3,1.8c0,0.7-0.1,1.3-0.3,1.9s-0.4,1.1-0.7,1.6
		s-0.7,0.9-1.1,1.3s-0.9,0.7-1.4,1s-1.1,0.5-1.7,0.6S-268.7,13.1-269.4,13.1z M-269.4,12c0.6,0,1.1-0.1,1.6-0.4s0.9-0.7,1.2-1.2
		s0.6-1.1,0.7-1.8s0.2-1.4,0.2-2.2c0-0.8-0.1-1.5-0.2-2.2s-0.4-1.2-0.7-1.7s-0.7-0.8-1.2-1.1s-1-0.4-1.6-0.4c-0.6,0-1.2,0.1-1.6,0.4
		s-0.9,0.6-1.2,1.1s-0.6,1-0.7,1.7s-0.2,1.4-0.2,2.2c0,0.8,0.1,1.5,0.2,2.2s0.4,1.3,0.7,1.8s0.7,0.9,1.2,1.2S-270,12-269.4,12z"/>
	<path d="M-257.1,0.3h3.1v8c0,0.5,0.1,0.9,0.2,1.4s0.4,0.8,0.6,1.1s0.6,0.6,1,0.8s0.8,0.3,1.3,0.3s0.9-0.1,1.3-0.3s0.7-0.4,1-0.8
		s0.5-0.7,0.6-1.1s0.2-0.9,0.2-1.4v-8h1.9v8c0,0.6-0.1,1.3-0.3,1.8s-0.6,1.1-1,1.5s-1.1,0.8-1.8,1s-1.6,0.4-2.6,0.4
		c-0.9,0-1.7-0.1-2.4-0.4s-1.3-0.6-1.8-1s-0.8-0.9-1.1-1.5s-0.4-1.2-0.4-1.8V0.3z"/>
	<path d="M-229,0.3v1.1h-4.3v11.5h-3.1V1.4h-4.3V0.3H-229z"/>
</g>
<g>
	<path d="M-174.6,0.3v1.1h-4.3v11.5h-3.1V1.4h-4.3V0.3H-174.6z"/>
	<path d="M-169.6,0.3h3.1v12.5h-3.1V0.3z"/>
	<path d="M-160.6,0.3h3l4.3,8.6l4.3-8.6h2.9v12.5h-3.1V4.7l-4.1,8.2h-1.2l-4.2-8.3v8.3h-1.9V0.3z"/>
	<path d="M-131,0.3v1.1h-6.3v4.1h5.2v1.1h-5.2v5h6.3v1.3h-9.3V0.3H-131z"/>
	<path d="M-114.9,0.3v1.1h-4.3v11.5h-3.1V1.4h-4.3V0.3H-114.9z"/>
	<path d="M-105.4,0l5.9,12.8h-3.1l-1.6-3.4h-4.9l-1.6,3.4h-2.1l6.1-12.8H-105.4z M-108.5,8.2h3.8l-1.9-4L-108.5,8.2z"/>
	<path d="M-95.3,0.3h5.4c0.7,0,1.4,0.1,2,0.2s1.1,0.4,1.5,0.7s0.8,0.6,1,1S-85,3-85,3.5c0,0.3,0,0.6-0.1,0.8s-0.2,0.5-0.3,0.7
		s-0.3,0.4-0.6,0.6s-0.5,0.4-0.9,0.6c0.4,0.1,0.7,0.3,1,0.5s0.6,0.4,0.8,0.7s0.4,0.5,0.5,0.9s0.2,0.7,0.2,1c0,0.5-0.1,1-0.3,1.4
		s-0.5,0.8-1,1.1s-0.9,0.6-1.5,0.7s-1.2,0.3-1.9,0.3h-6.2V0.3z M-92.2,5.7h2c0.3,0,0.6-0.1,0.9-0.2s0.5-0.2,0.6-0.4s0.3-0.4,0.4-0.6
		s0.1-0.5,0.1-0.8c0-0.3-0.1-0.6-0.2-0.9s-0.3-0.5-0.5-0.7s-0.5-0.3-0.9-0.5s-0.8-0.2-1.3-0.2h-1.2V5.7z M-92.2,11.5h1.7
		c0.5,0,0.9-0.1,1.3-0.2s0.7-0.3,0.9-0.4s0.4-0.4,0.5-0.7s0.2-0.5,0.2-0.9c0-0.4-0.1-0.7-0.2-1s-0.3-0.6-0.5-0.8s-0.5-0.4-0.9-0.5
		s-0.9-0.2-1.4-0.2h-1.6V11.5z"/>
	<path d="M-79.1,0.3h3.1v11.2h6.4v1.3h-9.5V0.3z"/>
	<path d="M-55.7,0.3v1.1h-6.3v4.1h5.2v1.1h-5.2v5h6.3v1.3H-65V0.3H-55.7z"/>
</g>
<g>
	<path d="M-205.3-3.9h1.4l-6.9,21.7h-1.4L-205.3-3.9z"/>
</g>
<g>
	<path d="M149.5-3.9h1.4L144,17.8h-1.4L149.5-3.9z"/>
</g>
<g>
	<path d="M-25.8-3.9h1.4l-6.9,21.7h-1.4L-25.8-3.9z"/>
</g>
<g>
	<path d="M0,0.3h3.1v11.2h6.4v1.3H0V0.3z"/>
	<path d="M20.6,13.1c-0.7,0-1.3-0.1-1.9-0.2s-1.2-0.4-1.7-0.6s-1-0.6-1.4-1s-0.8-0.8-1.1-1.3s-0.5-1-0.7-1.6s-0.3-1.2-0.3-1.8
		c0-0.6,0.1-1.2,0.3-1.8s0.4-1.1,0.7-1.6s0.7-0.9,1.1-1.3s0.9-0.7,1.4-1s1.1-0.5,1.7-0.6S20,0,20.6,0s1.3,0.1,1.9,0.2
		s1.2,0.3,1.7,0.6s1,0.6,1.4,1s0.8,0.8,1.1,1.3s0.5,1,0.7,1.6s0.3,1.2,0.3,1.8c0,0.7-0.1,1.3-0.3,1.9s-0.4,1.1-0.7,1.6
		s-0.7,0.9-1.1,1.3s-0.9,0.7-1.4,1s-1.1,0.5-1.7,0.6S21.3,13.1,20.6,13.1z M20.6,12c0.6,0,1.1-0.1,1.6-0.4s0.9-0.7,1.2-1.2
		s0.6-1.1,0.7-1.8s0.2-1.4,0.2-2.2c0-0.8-0.1-1.5-0.2-2.2s-0.4-1.2-0.7-1.7s-0.7-0.8-1.2-1.1s-1-0.4-1.6-0.4c-0.6,0-1.2,0.1-1.6,0.4
		s-0.9,0.6-1.2,1.1s-0.6,1-0.7,1.7s-0.2,1.4-0.2,2.2c0,0.8,0.1,1.5,0.2,2.2s0.4,1.3,0.7,1.8s0.7,0.9,1.2,1.2S20,12,20.6,12z"/>
	<path d="M35.8,6.6c0,0.8,0.1,1.5,0.4,2.1s0.6,1.1,1,1.6s0.9,0.7,1.4,1s1.1,0.3,1.6,0.3c0.4,0,0.8-0.1,1.2-0.2s0.7-0.4,1.1-0.6
		s0.6-0.6,0.9-0.9s0.6-0.7,0.8-1.1l1.3,0.9c-0.3,0.4-0.6,0.9-1,1.3s-0.8,0.8-1.3,1.1s-1,0.6-1.6,0.8s-1.2,0.3-1.8,0.3
		c-1.1,0-2.1-0.2-3-0.5s-1.7-0.8-2.3-1.3s-1.2-1.3-1.5-2.1s-0.6-1.7-0.6-2.7c0-0.6,0.1-1.2,0.2-1.8s0.4-1.1,0.7-1.6s0.7-0.9,1.1-1.3
		s0.9-0.7,1.4-1s1.1-0.5,1.8-0.6s1.3-0.2,2-0.2c0.7,0,1.4,0.1,2,0.3s1.1,0.4,1.6,0.7s0.9,0.7,1.3,1.1s0.7,0.9,1,1.4l-1.3,0.9
		c-0.3-0.4-0.5-0.7-0.9-1.1s-0.6-0.6-1-0.9s-0.7-0.4-1.1-0.6s-0.8-0.2-1.2-0.2c-0.6,0-1.1,0.1-1.6,0.3s-1,0.5-1.4,1
		s-0.7,0.9-0.9,1.6S35.8,5.7,35.8,6.6z"/>
	<path d="M56.7,0l5.9,12.8h-3.1l-1.6-3.4H53l-1.6,3.4h-2.1L55.3,0H56.7z M53.5,8.2h3.8l-1.9-4L53.5,8.2z"/>
	<path d="M76.3,0.3v1.1H72v11.5h-3.1V1.4h-4.3V0.3H76.3z"/>
	<path d="M81.4,0.3h3.1v12.5h-3.1V0.3z"/>
	<path d="M96.8,13.1c-0.7,0-1.3-0.1-1.9-0.2s-1.2-0.4-1.7-0.6s-1-0.6-1.4-1s-0.8-0.8-1.1-1.3s-0.5-1-0.7-1.6s-0.3-1.2-0.3-1.8
		c0-0.6,0.1-1.2,0.3-1.8s0.4-1.1,0.7-1.6s0.7-0.9,1.1-1.3s0.9-0.7,1.4-1s1.1-0.5,1.7-0.6S96.2,0,96.8,0s1.3,0.1,1.9,0.2
		s1.2,0.3,1.7,0.6s1,0.6,1.4,1s0.8,0.8,1.1,1.3s0.5,1,0.7,1.6s0.3,1.2,0.3,1.8c0,0.7-0.1,1.3-0.3,1.9s-0.4,1.1-0.7,1.6
		s-0.7,0.9-1.1,1.3s-0.9,0.7-1.4,1s-1.1,0.5-1.7,0.6S97.5,13.1,96.8,13.1z M96.8,12c0.6,0,1.1-0.1,1.6-0.4s0.9-0.7,1.2-1.2
		s0.6-1.1,0.7-1.8s0.2-1.4,0.2-2.2c0-0.8-0.1-1.5-0.2-2.2s-0.4-1.2-0.7-1.7s-0.7-0.8-1.2-1.1s-1-0.4-1.6-0.4c-0.6,0-1.2,0.1-1.6,0.4
		S94.4,2.1,94,2.6s-0.6,1-0.7,1.7s-0.2,1.4-0.2,2.2c0,0.8,0.1,1.5,0.2,2.2s0.4,1.3,0.7,1.8s0.7,0.9,1.2,1.2S96.2,12,96.8,12z"/>
	<path d="M109.1,0.3h2l7.1,8v-8h1.9V13h-1.3l-7.8-8.8v8.6h-1.9V0.3z"/>
</g>
<g>
	<path d="M170.9,6.6c0,0.8,0.1,1.5,0.4,2.1s0.6,1.1,1,1.6s0.9,0.7,1.4,1s1.1,0.3,1.6,0.3c0.4,0,0.8-0.1,1.2-0.2s0.7-0.4,1.1-0.6
		s0.6-0.6,0.9-0.9s0.6-0.7,0.8-1.1l1.3,0.9c-0.3,0.4-0.6,0.9-1,1.3s-0.8,0.8-1.3,1.1s-1,0.6-1.6,0.8s-1.2,0.3-1.8,0.3
		c-1.1,0-2.1-0.2-3-0.5s-1.7-0.8-2.3-1.3s-1.2-1.3-1.5-2.1s-0.6-1.7-0.6-2.7c0-0.6,0.1-1.2,0.2-1.8s0.4-1.1,0.7-1.6s0.7-0.9,1.1-1.3
		s0.9-0.7,1.4-1s1.1-0.5,1.8-0.6s1.3-0.2,2-0.2c0.7,0,1.4,0.1,2,0.3s1.1,0.4,1.6,0.7s0.9,0.7,1.3,1.1s0.7,0.9,1,1.4l-1.3,0.9
		c-0.3-0.4-0.5-0.7-0.9-1.1s-0.6-0.6-1-0.9s-0.7-0.4-1.1-0.6s-0.8-0.2-1.2-0.2c-0.6,0-1.1,0.1-1.6,0.3s-1,0.5-1.4,1
		s-0.7,0.9-0.9,1.6S170.9,5.7,170.9,6.6z"/>
	<path d="M192.4,13.1c-0.7,0-1.3-0.1-1.9-0.2s-1.2-0.4-1.7-0.6s-1-0.6-1.4-1s-0.8-0.8-1.1-1.3s-0.5-1-0.7-1.6s-0.3-1.2-0.3-1.8
		c0-0.6,0.1-1.2,0.3-1.8s0.4-1.1,0.7-1.6s0.7-0.9,1.1-1.3s0.9-0.7,1.4-1s1.1-0.5,1.7-0.6s1.3-0.2,1.9-0.2s1.3,0.1,1.9,0.2
		s1.2,0.3,1.7,0.6s1,0.6,1.4,1s0.8,0.8,1.1,1.3s0.5,1,0.7,1.6s0.3,1.2,0.3,1.8c0,0.7-0.1,1.3-0.3,1.9s-0.4,1.1-0.7,1.6
		s-0.7,0.9-1.1,1.3s-0.9,0.7-1.4,1s-1.1,0.5-1.7,0.6S193,13.1,192.4,13.1z M192.4,12c0.6,0,1.1-0.1,1.6-0.4s0.9-0.7,1.2-1.2
		s0.6-1.1,0.7-1.8s0.2-1.4,0.2-2.2c0-0.8-0.1-1.5-0.2-2.2s-0.4-1.2-0.7-1.7s-0.7-0.8-1.2-1.1s-1-0.4-1.6-0.4c-0.6,0-1.2,0.1-1.6,0.4
		s-0.9,0.6-1.2,1.1s-0.6,1-0.7,1.7s-0.2,1.4-0.2,2.2c0,0.8,0.1,1.5,0.2,2.2s0.4,1.3,0.7,1.8s0.7,0.9,1.2,1.2S191.7,12,192.4,12z"/>
	<path d="M204.6,0.3h2l7.1,8v-8h1.9V13h-1.3l-7.8-8.8v8.6h-1.9V0.3z"/>
	<path d="M232.3,0.3v1.1h-4.3v11.5h-3.1V1.4h-4.3V0.3H232.3z"/>
	<path d="M241.8,0l5.9,12.8h-3.1L243,9.4h-4.9l-1.6,3.4h-2.1L240.5,0H241.8z M238.7,8.2h3.8l-1.9-4L238.7,8.2z"/>
	<path d="M254.1,6.6c0,0.8,0.1,1.5,0.4,2.1s0.6,1.1,1,1.6s0.9,0.7,1.4,1s1.1,0.3,1.6,0.3c0.4,0,0.8-0.1,1.2-0.2s0.7-0.4,1.1-0.6
		s0.6-0.6,0.9-0.9s0.6-0.7,0.8-1.1l1.3,0.9c-0.3,0.4-0.6,0.9-1,1.3s-0.8,0.8-1.3,1.1s-1,0.6-1.6,0.8s-1.2,0.3-1.8,0.3
		c-1.1,0-2.1-0.2-3-0.5s-1.7-0.8-2.3-1.3s-1.2-1.3-1.5-2.1s-0.6-1.7-0.6-2.7c0-0.6,0.1-1.2,0.2-1.8s0.4-1.1,0.7-1.6s0.7-0.9,1.1-1.3
		s0.9-0.7,1.4-1s1.1-0.5,1.8-0.6s1.3-0.2,2-0.2c0.7,0,1.4,0.1,2,0.3s1.1,0.4,1.6,0.7s0.9,0.7,1.3,1.1s0.7,0.9,1,1.4l-1.3,0.9
		c-0.3-0.4-0.5-0.7-0.9-1.1s-0.6-0.6-1-0.9s-0.7-0.4-1.1-0.6s-0.8-0.2-1.2-0.2c-0.6,0-1.1,0.1-1.6,0.3s-1,0.5-1.4,1
		s-0.7,0.9-0.9,1.6S254.1,5.7,254.1,6.6z"/>
	<path d="M279.9,0.3v1.1h-4.3v11.5h-3.1V1.4h-4.3V0.3H279.9z"/>
</g>
</svg>
