<?xml version="1.0" encoding="utf-8"?>
<!-- Generator: Adobe Illustrator 21.0.0, SVG Export Plug-In . SVG Version: 6.00 Build 0)  -->
<svg version="1.1" id="Layer_1" xmlns="http://www.w3.org/2000/svg" xmlns:xlink="http://www.w3.org/1999/xlink" x="0px" y="0px"
	 viewBox="0 0 276.7 196.4" style="enable-background:new 0 0 276.7 196.4;" xml:space="preserve">
<style type="text/css">
	.st0{fill:none;stroke:#919191;stroke-width:0.5;stroke-linecap:round;stroke-linejoin:round;}
	.st1{display:none;}
	.st2{opacity:0.8;}
	.st3{stroke:#000000;stroke-width:0.25;stroke-miterlimit:10;}
</style>
<g id="Default">
	<g>
		<path class="st0" d="M74.5,147.2c-6.5,1-13.5,1-21,0c11.1-26.4,29.9-39.2,56.6-38.5"/>
		<path class="st0" d="M120.8,122.7c-6.2,26-23.5,40.9-51.8,44.8c3.9-28.3,18.8-45.6,44.8-51.8"/>
		<path class="st0" d="M127.8,126.4c0.7,26.7-12.1,45.6-38.5,56.6c-1-7.6-1-14.6,0-21"/>
	</g>
	<g>
		<path class="st0" d="M148.9,70c-0.7-26.7,12.1-45.6,38.5-56.6c1,7.6,1,14.6,0,21"/>
		<path class="st0" d="M155.8,73.7c6.2-26,23.5-40.9,51.8-44.8c-3.9,28.3-18.8,45.6-44.8,51.8"/>
		<path class="st0" d="M202.2,49.2c6.5-1,13.5-1,21,0c-11.1,26.4-29.9,39.2-56.6,38.5"/>
	</g>
	<g>
		<path class="st0" d="M165.7,85.7C184.1,66.3,206.5,62,233,72.8c-4.7,6-9.6,11-14.9,14.9"/>
		<path class="st0" d="M168.1,93.2c22.8-14,45.5-12.3,68.3,5c-22.8,17.3-45.5,19-68.3,5"/>
		<path class="st0" d="M218.1,108.7c5.2,3.9,10.2,8.8,14.9,14.9c-26.5,10.8-48.9,6.5-67.3-12.9"/>
	</g>
	<g>
		<path class="st0" d="M166.6,108.7c26.7-0.7,45.6,12.1,56.6,38.5c-7.6,1-14.6,1-21,0"/>
		<path class="st0" d="M162.9,115.7c26,6.2,40.9,23.5,44.8,51.8c-28.3-3.9-45.6-18.8-51.8-44.8"/>
		<path class="st0" d="M187.3,162c1,6.5,1,13.5,0,21c-26.4-11.1-39.2-29.9-38.5-56.6"/>
	</g>
	<g>
		<path class="st0" d="M150.8,125.6c19.4,18.4,23.7,40.8,12.9,67.3c-6-4.7-11-9.6-14.9-14.9"/>
		<path class="st0" d="M143.3,127.9c14,22.8,12.3,45.5-5,68.3c-17.3-22.8-19-45.5-5-68.3"/>
		<path class="st0" d="M127.8,178c-3.9,5.2-8.8,10.2-14.9,14.9c-10.8-26.5-6.5-48.9,12.9-67.3"/>
	</g>
	<g>
		<path class="st0" d="M89.3,34.4c-1-6.5-1-13.5,0-21c26.4,11.1,39.2,29.9,38.5,56.6"/>
		<path class="st0" d="M110.1,87.7c-26.7,0.7-45.6-12.1-56.6-38.5c7.6-1,14.6-1,21,0"/>
		<path class="st0" d="M113.8,80.7c-26-6.2-40.9-23.5-44.8-51.8c28.3,3.9,45.6,18.8,51.8,44.8"/>
	</g>
	<g>
		<path class="st0" d="M133.4,68.5c-14-22.8-12.3-45.5,5-68.3c17.3,22.8,19,45.5,5,68.3"/>
		<path class="st0" d="M148.8,18.4c3.9-5.2,8.8-10.2,14.9-14.9c10.8,26.5,6.5,48.9-12.9,67.3"/>
		<path class="st0" d="M125.8,70.8C106.4,52.4,102.2,30,113,3.5c6,4.7,11,9.6,14.9,14.9"/>
	</g>
	<g>
		<path class="st0" d="M110.9,110.7c-18.4,19.4-40.8,23.7-67.3,12.9c4.7-6,9.6-11,14.9-14.9"/>
		<path class="st0" d="M58.6,87.7c-5.2-3.9-10.2-8.8-14.9-14.9C70.2,62,92.6,66.3,111,85.7"/>
		<path class="st0" d="M108.6,103.2c-22.8,14-45.5,12.3-68.3-5c22.8-17.3,45.5-19,68.3-5"/>
	</g>
</g>
<g id="Layer_4" class="st1">
</g>
<g id="Layer_01">
	<g>
		
			<ellipse transform="matrix(0.2588 -0.9659 0.9659 0.2588 7.6261 206.4203)" class="st0" cx="138.3" cy="98.2" rx="14.3" ry="14.3"/>
		<path class="st0" d="M123.4,113.1c-1.9-1.9-4.9-0.7-6.5,0.9s-2.8,4.6-0.9,6.5s4.9,0.7,6.5-0.9S125.3,115,123.4,113.1z"/>
		<ellipse transform="matrix(0.2588 -0.9659 0.9659 0.2588 7.6262 206.42)" class="st0" cx="138.3" cy="98.2" rx="18.4" ry="18.4"/>
		<path class="st0" d="M153.3,113.1c-1.9,1.9-0.7,4.9,0.9,6.5s4.6,2.8,6.5,0.9s0.7-4.9-0.9-6.5C158.2,112.5,155.2,111.2,153.3,113.1
			z"/>
		<path class="st0" d="M123.4,83.3c1.9-1.9,0.7-4.9-0.9-6.5s-4.6-2.8-6.5-0.9s-0.7,4.9,0.9,6.5C118.5,83.9,121.5,85.2,123.4,83.3z"
			/>
		<path class="st0" d="M117.2,98.2c0-2.7-3-4-5.3-4c-2.2,0-5.3,1.2-5.3,4c0,2.7,3,4,5.3,4S117.2,100.9,117.2,98.2z"/>
		<path class="st0" d="M138.3,77.1c2.7,0,4-3,4-5.3c0-2.2-1.2-5.3-4-5.3c-2.7,0-4,3-4,5.3C134.4,74.1,135.6,77.1,138.3,77.1z"/>
		<path class="st0" d="M138.3,119.3c-2.7,0-4,3-4,5.3c0,2.2,1.2,5.3,4,5.3c2.7,0,4-3,4-5.3S141,119.3,138.3,119.3z"/>
		<path class="st0" d="M159.4,98.2c0,2.7,3,4,5.3,4c2.2,0,5.3-1.2,5.3-4c0-2.7-3-4-5.3-4C162.5,94.2,159.4,95.5,159.4,98.2z"/>
		<path class="st0" d="M134.6,70c-1-1.6-2.9-3.1-4.9-2.2c-1.9,0.9-2.4,3.3-2.2,5.1c0.3,1.8,1.4,3.9,3.2,4.7c2.1,0.9,4-0.3,4.6-2.4"
			/>
		<path class="st0" d="M153.3,83.3c1.9,1.9,4.9,0.7,6.5-0.9s2.8-4.6,0.9-6.5c-1.9-1.9-4.9-0.7-6.5,0.9S151.3,81.4,153.3,83.3z"/>
		<path class="st0" d="M141.4,75.2c0.6,2.1,2.5,3.3,4.6,2.4c1.8-0.8,2.9-2.9,3.2-4.7c0.3-1.8-0.2-4.2-2.2-5.1s-4,0.6-4.9,2.2"/>
		<path class="st0" d="M155.6,75.6c0.5-1.8,0.1-4.3-1.9-5.1c-2-0.7-4,0.6-5.1,2.1s-1.8,3.7-1.1,5.6c0.8,2.1,3,2.6,4.9,1.6"/>
		<path class="st0" d="M156.7,84.1c-1,1.9-0.6,4.1,1.6,4.9c1.9,0.7,4.1,0,5.6-1.1s2.8-3.2,2.1-5.1c-0.8-2.1-3.2-2.4-5.1-1.9"/>
		<path class="st0" d="M124.2,79.8c1.9,1,4.1,0.6,4.9-1.6c0.7-1.9,0-4.1-1.1-5.6s-3.2-2.8-5.1-2.1c-2.1,0.8-2.4,3.2-1.9,5.1"/>
		<path class="st0" d="M115.8,80.9c-1.8-0.5-4.3-0.1-5.1,1.9c-0.7,2,0.6,4,2.1,5.1s3.7,1.8,5.6,1.1c2.1-0.8,2.6-3,1.6-4.9"/>
		<path class="st0" d="M115.4,95.2c2.1-0.6,3.3-2.5,2.4-4.6c-0.8-1.8-2.9-2.9-4.7-3.2c-1.8-0.3-4.2,0.2-5.1,2.2s0.6,4,2.2,4.9"/>
		<path class="st0" d="M110.1,101.9c-1.6,1-3.1,2.9-2.2,4.9c0.9,1.9,3.3,2.4,5.1,2.2c1.8-0.3,3.9-1.4,4.7-3.2c0.9-2.1-0.3-4-2.4-4.6
			"/>
		<path class="st0" d="M120,112.3c1-1.9,0.6-4.1-1.6-4.9c-1.9-0.7-4.1,0-5.6,1.1s-2.8,3.2-2.1,5.1c0.8,2.1,3.2,2.4,5.1,1.9"/>
		<path class="st0" d="M121,120.8c-0.5,1.8-0.1,4.3,1.9,5.1c2,0.7,4-0.6,5.1-2.1c1.1-1.5,1.8-3.7,1.1-5.6c-0.8-2.1-3-2.6-4.9-1.6"/>
		<path class="st0" d="M135.3,121.2c-0.6-2.1-2.5-3.3-4.6-2.4c-1.8,0.8-2.9,2.9-3.2,4.7c-0.3,1.8,0.2,4.2,2.2,5.1
			c2,0.9,4-0.6,4.9-2.2"/>
		<path class="st0" d="M142,126.4c1,1.6,2.9,3.1,4.9,2.2c1.9-0.9,2.4-3.3,2.2-5.1c-0.3-1.8-1.4-3.9-3.2-4.7c-2.1-0.9-4,0.3-4.6,2.4"
			/>
		<path class="st0" d="M152.4,116.6c-1.9-1-4.1-0.6-4.9,1.6c-0.7,1.9,0,4.1,1.1,5.6s3.2,2.8,5.1,2.1c2.1-0.8,2.4-3.2,1.9-5.1"/>
		<path class="st0" d="M160.9,115.5c1.8,0.5,4.3,0.1,5.1-1.9c0.7-2-0.6-4-2.1-5.1s-3.7-1.8-5.6-1.1c-2.1,0.8-2.6,3-1.6,4.9"/>
		<path class="st0" d="M161.3,101.2c-2.1,0.6-3.3,2.5-2.4,4.6c0.8,1.8,2.9,2.9,4.7,3.2c1.8,0.3,4.2-0.2,5.1-2.2c0.9-2-0.6-4-2.2-4.9
			"/>
		<path class="st0" d="M166.5,94.5c1.6-1,3.1-2.9,2.2-4.9c-0.9-1.9-3.3-2.4-5.1-2.2c-1.8,0.3-3.9,1.4-4.7,3.2
			c-0.9,2.1,0.3,4,2.4,4.6"/>
	</g>
</g>
<g id="Layer_3">
	<g class="st2">
		<path class="st3" d="M17.1,79.8v1.5h-6.3v16.5H6.4V81.4H0.1v-1.5L17.1,79.8L17.1,79.8z"/>
		<path class="st3" d="M30.8,79.4l8.5,18.5h-4.5L32.5,93h-7l-2.4,4.9h-3l8.8-18.5H30.8z M26.3,91.3h5.4L29,85.5L26.3,91.3z"/>
		<path class="st3" d="M45.4,79.8h6.8c1.2,0,2.2,0.1,3.1,0.4s1.6,0.6,2.2,1s1,1,1.3,1.6s0.4,1.3,0.4,2c0,0.5-0.1,1-0.3,1.5
			s-0.5,0.9-0.8,1.3s-0.8,0.7-1.3,1s-1.1,0.5-1.7,0.7l6.4,8.7h-4.8l-6.1-8.2h-0.8V98h-4.4C45.4,98,45.4,79.8,45.4,79.8z M49.9,88.2
			h1c0.5,0,1-0.1,1.5-0.2s0.9-0.4,1.2-0.7s0.6-0.6,0.8-1s0.3-0.9,0.3-1.4s-0.1-0.9-0.2-1.3s-0.4-0.7-0.6-1s-0.6-0.5-0.9-0.7
			s-0.8-0.2-1.2-0.2H50L49.9,88.2L49.9,88.2z"/>
		<path class="st3" d="M76,79.4l8.5,18.5H80L77.6,93h-7l-2.4,4.9h-3L74,79.4H76z M71.4,91.3h5.4l-2.7-5.8L71.4,91.3z"/>
		<path class="st3" d="M90.6,79.8h2.8l10.3,11.5V79.8h2.8v18.4h-1.9L93.4,85.5v12.4h-2.8V79.8z"/>
		<path class="st3" d="M123.4,79.4l8.5,18.5h-4.5L125,93h-7l-2.4,4.9h-3l8.8-18.5H123.4z M118.8,91.3h5.4l-2.7-5.8L118.8,91.3z"/>
		<path class="st3" d="M138,79.8h4.5v6.8l8-6.8h3.4l-9,7.6l11.5,10.4H151l-8.5-7.7v7.7H138V79.8z"/>
		<path class="st3" d="M161.7,79.8h4.4v18.1h-4.4V79.8z"/>
		<path class="st3" d="M186.1,79.8l6,8.1l5.6-8.1h3l-7,10.3v7.8h-4.4v-7.6l-7.7-10.5C181.6,79.8,186.1,79.8,186.1,79.8z"/>
		<path class="st3" d="M215.1,98.3c-1,0-1.9-0.1-2.8-0.3s-1.7-0.5-2.5-0.9s-1.5-0.9-2.1-1.4s-1.2-1.2-1.6-1.9s-0.8-1.5-1-2.3
			s-0.4-1.7-0.4-2.6s0.1-1.8,0.4-2.6s0.6-1.6,1-2.3s1-1.3,1.6-1.9s1.3-1,2.1-1.4s1.6-0.7,2.5-0.9s1.8-0.3,2.8-0.3s1.9,0.1,2.8,0.3
			s1.7,0.5,2.5,0.9s1.5,0.9,2.1,1.4s1.2,1.2,1.6,1.9s0.8,1.4,1,2.2s0.4,1.7,0.4,2.6c0,1-0.1,1.9-0.4,2.7s-0.6,1.6-1,2.3
			s-1,1.3-1.6,1.9s-1.3,1-2.1,1.4s-1.6,0.7-2.5,0.9S216.1,98.3,215.1,98.3z M215.1,96.8c0.9,0,1.7-0.2,2.3-0.6s1.2-1,1.7-1.7
			s0.8-1.6,1-2.5s0.3-2.1,0.3-3.2s-0.1-2.2-0.3-3.1s-0.6-1.8-1-2.5s-1-1.2-1.7-1.6S216,81,215.1,81s-1.7,0.2-2.3,0.6
			s-1.2,0.9-1.7,1.6s-0.8,1.5-1,2.5s-0.3,2-0.3,3.1c0,1.2,0.1,2.2,0.3,3.2s0.6,1.8,1,2.5s1,1.3,1.7,1.7S214.3,96.8,215.1,96.8z"/>
		<path class="st3" d="M243.7,89.1h7.5v7c-0.6,0.3-1.2,0.6-1.7,0.9s-1.2,0.5-1.9,0.7s-1.4,0.3-2.2,0.4s-1.6,0.2-2.6,0.2
			c-1.6,0-3-0.2-4.3-0.7s-2.4-1.1-3.4-1.8s-1.7-1.8-2.2-2.9s-0.8-2.4-0.8-3.7c0-1,0.1-1.9,0.4-2.7s0.6-1.6,1-2.4s1-1.4,1.6-1.9
			s1.4-1.1,2.1-1.5s1.7-0.7,2.6-0.9s1.9-0.3,3-0.3c0.9,0,1.8,0.1,2.7,0.4s1.6,0.6,2.4,1s1.4,0.9,1.9,1.4s1.1,1.1,1.4,1.6l-1.8,1.7
			c-0.4-0.5-0.8-1-1.2-1.5s-0.9-0.9-1.3-1.2s-1-0.6-1.5-0.8s-1.1-0.3-1.7-0.3c-0.9,0-1.8,0.2-2.6,0.5s-1.5,0.8-2.1,1.5
			s-1,1.4-1.4,2.3s-0.5,2-0.5,3.1c0,1.2,0.2,2.2,0.5,3.1s0.8,1.7,1.4,2.3s1.3,1.1,2.2,1.4s1.7,0.5,2.6,0.5c0.6,0,1.1-0.1,1.6-0.2
			s1-0.4,1.4-0.7v-4.8h-3.1L243.7,89.1L243.7,89.1z"/>
		<path class="st3" d="M268.1,79.4l8.5,18.5H272l-2.3-4.9h-7l-2.4,4.9h-3l8.8-18.5H268.1z M263.6,91.3h5.4l-2.7-5.8L263.6,91.3z"/>
	</g>
	<g class="st2">
		<path class="st3" d="M51.4,105.3H54v10.4h-2.6V105.3z"/>
		<path class="st3" d="M61,105.3l3.4,4.7l3.2-4.7h1.7l-4.1,5.9v4.5h-2.6v-4.4l-4.4-6.1L61,105.3L61,105.3z"/>
		<path class="st3" d="M81.4,105.3v0.9h-5.2v3.4h4.3v0.9h-4.3v4.1h5.2v1.1h-7.8v-10.4H81.4z"/>
		<path class="st3" d="M86.6,105.3h1.6l5.9,6.6v-6.6h1.6v10.6h-1.1l-6.5-7.3v7.2h-1.6L86.6,105.3L86.6,105.3z"/>
		<path class="st3" d="M107.5,110.6h4.3v4c-0.3,0.2-0.7,0.3-1,0.5s-0.7,0.3-1.1,0.4s-0.8,0.2-1.2,0.3c-0.4,0.1-1,0.1-1.5,0.1
			c-0.9,0-1.7-0.1-2.5-0.4s-1.4-0.6-2-1.1c-0.5-0.5-1-1-1.3-1.7s-0.5-1.4-0.5-2.2c0-0.6,0.1-1.1,0.2-1.6s0.3-0.9,0.6-1.4
			c0.3-0.4,0.6-0.8,0.9-1.1c0.4-0.3,0.8-0.6,1.2-0.8s1-0.4,1.5-0.5s1.1-0.2,1.7-0.2c0.5,0,1,0.1,1.5,0.2s0.9,0.3,1.4,0.6
			c0.4,0.2,0.8,0.5,1.1,0.8s0.6,0.6,0.8,0.9l-1.1,1c-0.2-0.3-0.5-0.6-0.7-0.9s-0.5-0.5-0.8-0.7s-0.6-0.4-0.9-0.5s-0.6-0.2-1-0.2
			c-0.5,0-1,0.1-1.5,0.3c-0.5,0.2-0.9,0.5-1.2,0.8s-0.6,0.8-0.8,1.4s-0.3,1.1-0.3,1.8c0,0.7,0.1,1.3,0.3,1.8c0.2,0.5,0.5,1,0.8,1.3
			s0.8,0.6,1.2,0.8c0.5,0.2,1,0.3,1.5,0.3c0.3,0,0.6,0,0.9-0.1s0.6-0.2,0.8-0.4v-2.8H107v-0.7H107.5z"/>
		<path class="st3" d="M122.4,105l4.9,10.7h-2.6l-1.3-2.8h-4.1l-1.4,2.8h-1.7l5.1-10.7H122.4z M119.8,111.9h3.1l-1.5-3.4
			L119.8,111.9z"/>
		<path class="st3" d="M131.5,105.3h3.9c0.7,0,1.3,0.1,1.8,0.2s0.9,0.3,1.3,0.6s0.6,0.6,0.8,0.9s0.3,0.7,0.3,1.1
			c0,0.3-0.1,0.6-0.2,0.8s-0.3,0.5-0.5,0.7s-0.5,0.4-0.8,0.6s-0.6,0.3-1,0.4l3.7,5H138l-3.5-4.7H134v4.7h-2.6v-10.3H131.5z
			 M134.1,110.1h0.6c0.3,0,0.6,0,0.9-0.1c0.3-0.1,0.5-0.2,0.7-0.4s0.3-0.4,0.5-0.6s0.2-0.5,0.2-0.8s0-0.5-0.1-0.8s-0.2-0.4-0.4-0.6
			s-0.3-0.3-0.5-0.4s-0.4-0.1-0.7-0.1h-1v3.8H134.1z"/>
		<path class="st3" d="M152.2,105.3h2.5l3.6,7.1l3.6-7.1h2.4v10.4h-2.6v-6.8l-3.4,6.8h-1l-3.5-6.9v6.9h-1.6V105.3z"/>
		<path class="st3" d="M177.6,105.3v0.9h-5.2v3.4h4.3v0.9h-4.3v4.1h5.2v1.1h-7.8v-10.4H177.6z"/>
		<path class="st3" d="M191.8,105.3v0.9h-3.6v9.5h-2.6v-9.5H182v-0.9H191.8z"/>
		<path class="st3" d="M199.2,110.7v5h-2.6v-10.4h2.6v4.6h4.2v-4.6h2.5v10.4h-2.5v-5H199.2z"/>
		<path class="st3" d="M216.9,115.9c-0.6,0-1.1-0.1-1.6-0.2s-1-0.3-1.4-0.5s-0.8-0.5-1.2-0.8s-0.7-0.7-0.9-1.1s-0.5-0.9-0.6-1.3
			c-0.1-0.5-0.2-1-0.2-1.5s0.1-1,0.2-1.5c0.1-0.5,0.3-0.9,0.6-1.3s0.6-0.8,0.9-1.1c0.4-0.3,0.8-0.6,1.2-0.8s0.9-0.4,1.4-0.5
			s1-0.2,1.6-0.2s1.1,0.1,1.6,0.2s1,0.3,1.4,0.5s0.8,0.5,1.2,0.8s0.7,0.7,0.9,1.1s0.5,0.8,0.6,1.3s0.2,1,0.2,1.5
			c0,0.6-0.1,1.1-0.2,1.6c-0.1,0.5-0.3,0.9-0.6,1.3s-0.6,0.8-0.9,1.1c-0.4,0.3-0.8,0.6-1.2,0.8c-0.4,0.2-0.9,0.4-1.4,0.5
			S217.5,115.9,216.9,115.9z M216.9,115c0.5,0,1-0.1,1.3-0.3c0.4-0.2,0.7-0.6,1-1s0.5-0.9,0.6-1.5s0.2-1.2,0.2-1.9
			c0-0.7-0.1-1.3-0.2-1.8c-0.1-0.5-0.3-1-0.6-1.4s-0.6-0.7-1-0.9c-0.4-0.2-0.8-0.3-1.3-0.3s-1,0.1-1.4,0.3s-0.7,0.5-1,0.9
			s-0.5,0.9-0.6,1.4s-0.2,1.2-0.2,1.8c0,0.7,0.1,1.3,0.2,1.9c0.1,0.6,0.3,1.1,0.6,1.5s0.6,0.7,1,1C215.9,114.9,216.4,115,216.9,115z
			"/>
		<path class="st3" d="M227.9,105.3h3.8c1,0,1.9,0.1,2.7,0.3c0.8,0.2,1.5,0.6,2.1,1s1,1,1.4,1.6s0.5,1.4,0.5,2.2
			c0,0.7-0.1,1.4-0.4,2.1c-0.3,0.6-0.7,1.2-1.2,1.7s-1.2,0.9-2,1.1c-0.8,0.3-1.7,0.4-2.7,0.4h-4.2L227.9,105.3L227.9,105.3z
			 M230.4,114.6h1.4c0.5,0,1-0.1,1.4-0.3s0.8-0.5,1.2-0.8c0.3-0.4,0.6-0.8,0.8-1.3s0.3-1.1,0.3-1.8c0-0.6-0.1-1.1-0.3-1.6
			s-0.4-0.9-0.8-1.3s-0.7-0.7-1.2-0.9s-0.9-0.3-1.5-0.3h-1.4v8.3H230.4z"/>
	</g>
</g>
</svg>
