<?xml version="1.0" encoding="utf-8"?>
<!-- Generator: Adobe Illustrator 21.0.0, SVG Export Plug-In . SVG Version: 6.00 Build 0)  -->
<svg version="1.0" id="Layer_1" xmlns="http://www.w3.org/2000/svg" xmlns:xlink="http://www.w3.org/1999/xlink" x="0px" y="0px"
	 viewBox="0 0 8.4 21.7" style="enable-background:new 0 0 8.4 21.7;" xml:space="preserve">
<g>
	<path d="M-89.9,3.9l5.9,12.8h-3.1l-1.6-3.4h-4.9l-1.6,3.4h-2.1l6.1-12.8H-89.9z M-93,12.1h3.8l-1.9-4L-93,12.1z"/>
	<path d="M-79.7,4.2h5.4c0.7,0,1.4,0.1,2,0.2s1.1,0.4,1.5,0.7s0.8,0.6,1,1s0.4,0.8,0.4,1.3c0,0.3,0,0.6-0.1,0.8s-0.2,0.5-0.3,0.7
		s-0.3,0.4-0.6,0.6s-0.5,0.4-0.9,0.6c0.4,0.1,0.7,0.3,1,0.5s0.6,0.4,0.8,0.7s0.4,0.5,0.5,0.9s0.2,0.7,0.2,1c0,0.5-0.1,1-0.3,1.4
		s-0.5,0.8-1,1.1s-0.9,0.6-1.5,0.7s-1.2,0.3-1.9,0.3h-6.2V4.2z M-76.7,9.6h2c0.3,0,0.6-0.1,0.9-0.2s0.5-0.2,0.6-0.4s0.3-0.4,0.4-0.6
		s0.1-0.5,0.1-0.8c0-0.3-0.1-0.6-0.2-0.9s-0.3-0.5-0.5-0.7s-0.5-0.3-0.9-0.5s-0.8-0.2-1.3-0.2h-1.2V9.6z M-76.7,15.4h1.7
		c0.5,0,0.9-0.1,1.3-0.2s0.7-0.3,0.9-0.4s0.4-0.4,0.5-0.7s0.2-0.5,0.2-0.9c0-0.4-0.1-0.7-0.2-1s-0.3-0.6-0.5-0.8s-0.5-0.4-0.9-0.5
		s-0.9-0.2-1.4-0.2h-1.6V15.4z"/>
	<path d="M-57.1,17c-0.7,0-1.3-0.1-1.9-0.2s-1.2-0.4-1.7-0.6s-1-0.6-1.4-1s-0.8-0.8-1.1-1.3s-0.5-1-0.7-1.6s-0.3-1.2-0.3-1.8
		c0-0.6,0.1-1.2,0.3-1.8s0.4-1.1,0.7-1.6s0.7-0.9,1.1-1.3s0.9-0.7,1.4-1s1.1-0.5,1.7-0.6s1.3-0.2,1.9-0.2s1.3,0.1,1.9,0.2
		s1.2,0.3,1.7,0.6s1,0.6,1.4,1s0.8,0.8,1.1,1.3s0.5,1,0.7,1.6s0.3,1.2,0.3,1.8c0,0.7-0.1,1.3-0.3,1.9s-0.4,1.1-0.7,1.6
		s-0.7,0.9-1.1,1.3s-0.9,0.7-1.4,1s-1.1,0.5-1.7,0.6S-56.4,17-57.1,17z M-57.1,15.9c0.6,0,1.1-0.1,1.6-0.4s0.9-0.7,1.2-1.2
		s0.6-1.1,0.7-1.8s0.2-1.4,0.2-2.2c0-0.8-0.1-1.5-0.2-2.2s-0.4-1.2-0.7-1.7s-0.7-0.8-1.2-1.1s-1-0.4-1.6-0.4c-0.6,0-1.2,0.1-1.6,0.4
		s-0.9,0.6-1.2,1.1s-0.6,1-0.7,1.7s-0.2,1.4-0.2,2.2c0,0.8,0.1,1.5,0.2,2.2s0.4,1.3,0.7,1.8s0.7,0.9,1.2,1.2S-57.7,15.9-57.1,15.9z"
		/>
	<path d="M-44.8,4.2h3.1v8c0,0.5,0.1,0.9,0.2,1.4s0.4,0.8,0.6,1.1s0.6,0.6,1,0.8s0.8,0.3,1.3,0.3s0.9-0.1,1.3-0.3s0.7-0.4,1-0.8
		s0.5-0.7,0.6-1.1s0.2-0.9,0.2-1.4v-8h1.9v8c0,0.6-0.1,1.3-0.3,1.8s-0.6,1.1-1,1.5s-1.1,0.8-1.8,1s-1.6,0.4-2.6,0.4
		c-0.9,0-1.7-0.1-2.4-0.4s-1.3-0.6-1.8-1s-0.8-0.9-1.1-1.5s-0.4-1.2-0.4-1.8V4.2z"/>
	<path d="M-16.8,4.2v1.1h-4.3v11.5h-3.1V5.2h-4.3V4.2H-16.8z"/>
</g>
<g>
	<path d="M37.6,4.2v1.1h-4.3v11.5h-3.1V5.2h-4.3V4.2H37.6z"/>
	<path d="M42.6,4.2h3.1v12.5h-3.1V4.2z"/>
	<path d="M51.6,4.2h3l4.3,8.6l4.3-8.6h2.9v12.5H63V8.5L59,16.7h-1.2l-4.2-8.3v8.3h-1.9V4.2z"/>
	<path d="M81.2,4.2v1.1H75v4.1h5.2v1.1H75v5h6.3v1.3h-9.3V4.2H81.2z"/>
	<path d="M97.3,4.2v1.1H93v11.5h-3.1V5.2h-4.3V4.2H97.3z"/>
	<path d="M106.8,3.9l5.9,12.8h-3.1l-1.6-3.4h-4.9l-1.6,3.4h-2.1l6.1-12.8H106.8z M103.7,12.1h3.8l-1.9-4L103.7,12.1z"/>
	<path d="M117,4.2h5.4c0.7,0,1.4,0.1,2,0.2s1.1,0.4,1.5,0.7s0.8,0.6,1,1s0.4,0.8,0.4,1.3c0,0.3,0,0.6-0.1,0.8s-0.2,0.5-0.3,0.7
		s-0.3,0.4-0.6,0.6s-0.5,0.4-0.9,0.6c0.4,0.1,0.7,0.3,1,0.5s0.6,0.4,0.8,0.7s0.4,0.5,0.5,0.9s0.2,0.7,0.2,1c0,0.5-0.1,1-0.3,1.4
		s-0.5,0.8-1,1.1s-0.9,0.6-1.5,0.7s-1.2,0.3-1.9,0.3H117V4.2z M120,9.6h2c0.3,0,0.6-0.1,0.9-0.2s0.5-0.2,0.6-0.4s0.3-0.4,0.4-0.6
		s0.1-0.5,0.1-0.8c0-0.3-0.1-0.6-0.2-0.9s-0.3-0.5-0.5-0.7s-0.5-0.3-0.9-0.5s-0.8-0.2-1.3-0.2H120V9.6z M120,15.4h1.7
		c0.5,0,0.9-0.1,1.3-0.2s0.7-0.3,0.9-0.4s0.4-0.4,0.5-0.7s0.2-0.5,0.2-0.9c0-0.4-0.1-0.7-0.2-1s-0.3-0.6-0.5-0.8s-0.5-0.4-0.9-0.5
		s-0.9-0.2-1.4-0.2H120V15.4z"/>
	<path d="M133.1,4.2h3.1v11.2h6.4v1.3h-9.5V4.2z"/>
	<path d="M156.6,4.2v1.1h-6.3v4.1h5.2v1.1h-5.2v5h6.3v1.3h-9.3V4.2H156.6z"/>
</g>
<g>
	<path d="M6.9,0h1.4L1.4,21.7H0L6.9,0z"/>
</g>
<g>
	<path d="M361.8,0h1.4l-6.9,21.7h-1.4L361.8,0z"/>
</g>
<g>
	<path d="M186.4,0h1.4l-6.9,21.7h-1.4L186.4,0z"/>
</g>
<g>
	<path d="M212.2,4.2h3.1v11.2h6.4v1.3h-9.5V4.2z"/>
	<path d="M232.9,17c-0.7,0-1.3-0.1-1.9-0.2s-1.2-0.4-1.7-0.6s-1-0.6-1.4-1s-0.8-0.8-1.1-1.3s-0.5-1-0.7-1.6s-0.3-1.2-0.3-1.8
		c0-0.6,0.1-1.2,0.3-1.8s0.4-1.1,0.7-1.6s0.7-0.9,1.1-1.3s0.9-0.7,1.4-1s1.1-0.5,1.7-0.6s1.3-0.2,1.9-0.2s1.3,0.1,1.9,0.2
		s1.2,0.3,1.7,0.6s1,0.6,1.4,1s0.8,0.8,1.1,1.3s0.5,1,0.7,1.6s0.3,1.2,0.3,1.8c0,0.7-0.1,1.3-0.3,1.9s-0.4,1.1-0.7,1.6
		s-0.7,0.9-1.1,1.3s-0.9,0.7-1.4,1s-1.1,0.5-1.7,0.6S233.5,17,232.9,17z M232.9,15.9c0.6,0,1.1-0.1,1.6-0.4s0.9-0.7,1.2-1.2
		s0.6-1.1,0.7-1.8s0.2-1.4,0.2-2.2c0-0.8-0.1-1.5-0.2-2.2s-0.4-1.2-0.7-1.7s-0.7-0.8-1.2-1.1s-1-0.4-1.6-0.4c-0.6,0-1.2,0.1-1.6,0.4
		s-0.9,0.6-1.2,1.1s-0.6,1-0.7,1.7s-0.2,1.4-0.2,2.2c0,0.8,0.1,1.5,0.2,2.2s0.4,1.3,0.7,1.8s0.7,0.9,1.2,1.2S232.3,15.9,232.9,15.9z
		"/>
	<path d="M248,10.4c0,0.8,0.1,1.5,0.4,2.1s0.6,1.1,1,1.6s0.9,0.7,1.4,1s1.1,0.3,1.6,0.3c0.4,0,0.8-0.1,1.2-0.2s0.7-0.4,1.1-0.6
		s0.6-0.6,0.9-0.9s0.6-0.7,0.8-1.1l1.3,0.9c-0.3,0.4-0.6,0.9-1,1.3s-0.8,0.8-1.3,1.1s-1,0.6-1.6,0.8S252.7,17,252,17
		c-1.1,0-2.1-0.2-3-0.5s-1.7-0.8-2.3-1.3s-1.2-1.3-1.5-2.1s-0.6-1.7-0.6-2.7c0-0.6,0.1-1.2,0.2-1.8s0.4-1.1,0.7-1.6s0.7-0.9,1.1-1.3
		s0.9-0.7,1.4-1s1.1-0.5,1.8-0.6s1.3-0.2,2-0.2c0.7,0,1.4,0.1,2,0.3s1.1,0.4,1.6,0.7s0.9,0.7,1.3,1.1s0.7,0.9,1,1.4l-1.3,0.9
		c-0.3-0.4-0.5-0.7-0.9-1.1s-0.6-0.6-1-0.9s-0.7-0.4-1.1-0.6s-0.8-0.2-1.2-0.2c-0.6,0-1.1,0.1-1.6,0.3s-1,0.5-1.4,1
		s-0.7,0.9-0.9,1.6S248,9.6,248,10.4z"/>
	<path d="M268.9,3.9l5.9,12.8h-3.1l-1.6-3.4h-4.9l-1.6,3.4h-2.1l6.1-12.8H268.9z M265.8,12.1h3.8l-1.9-4L265.8,12.1z"/>
	<path d="M288.6,4.2v1.1h-4.3v11.5h-3.1V5.2h-4.3V4.2H288.6z"/>
	<path d="M293.6,4.2h3.1v12.5h-3.1V4.2z"/>
	<path d="M309.1,17c-0.7,0-1.3-0.1-1.9-0.2s-1.2-0.4-1.7-0.6s-1-0.6-1.4-1s-0.8-0.8-1.1-1.3s-0.5-1-0.7-1.6s-0.3-1.2-0.3-1.8
		c0-0.6,0.1-1.2,0.3-1.8s0.4-1.1,0.7-1.6s0.7-0.9,1.1-1.3s0.9-0.7,1.4-1s1.1-0.5,1.7-0.6s1.3-0.2,1.9-0.2s1.3,0.1,1.9,0.2
		s1.2,0.3,1.7,0.6s1,0.6,1.4,1s0.8,0.8,1.1,1.3s0.5,1,0.7,1.6s0.3,1.2,0.3,1.8c0,0.7-0.1,1.3-0.3,1.9s-0.4,1.1-0.7,1.6
		s-0.7,0.9-1.1,1.3s-0.9,0.7-1.4,1s-1.1,0.5-1.7,0.6S309.8,17,309.1,17z M309.1,15.9c0.6,0,1.1-0.1,1.6-0.4s0.9-0.7,1.2-1.2
		s0.6-1.1,0.7-1.8s0.2-1.4,0.2-2.2c0-0.8-0.1-1.5-0.2-2.2s-0.4-1.2-0.7-1.7s-0.7-0.8-1.2-1.1s-1-0.4-1.6-0.4c-0.6,0-1.2,0.1-1.6,0.4
		s-0.9,0.6-1.2,1.1s-0.6,1-0.7,1.7s-0.2,1.4-0.2,2.2c0,0.8,0.1,1.5,0.2,2.2s0.4,1.3,0.7,1.8s0.7,0.9,1.2,1.2S308.5,15.9,309.1,15.9z
		"/>
	<path d="M321.4,4.2h2l7.1,8v-8h1.9v12.7h-1.3l-7.8-8.8v8.6h-1.9V4.2z"/>
</g>
<g>
	<path d="M383.1,10.4c0,0.8,0.1,1.5,0.4,2.1s0.6,1.1,1,1.6s0.9,0.7,1.4,1s1.1,0.3,1.6,0.3c0.4,0,0.8-0.1,1.2-0.2s0.7-0.4,1.1-0.6
		s0.6-0.6,0.9-0.9s0.6-0.7,0.8-1.1l1.3,0.9c-0.3,0.4-0.6,0.9-1,1.3s-0.8,0.8-1.3,1.1s-1,0.6-1.6,0.8s-1.2,0.3-1.8,0.3
		c-1.1,0-2.1-0.2-3-0.5s-1.7-0.8-2.3-1.3s-1.2-1.3-1.5-2.1s-0.6-1.7-0.6-2.7c0-0.6,0.1-1.2,0.2-1.8s0.4-1.1,0.7-1.6s0.7-0.9,1.1-1.3
		s0.9-0.7,1.4-1s1.1-0.5,1.8-0.6s1.3-0.2,2-0.2c0.7,0,1.4,0.1,2,0.3s1.1,0.4,1.6,0.7s0.9,0.7,1.3,1.1s0.7,0.9,1,1.4l-1.3,0.9
		c-0.3-0.4-0.5-0.7-0.9-1.1s-0.6-0.6-1-0.9s-0.7-0.4-1.1-0.6s-0.8-0.2-1.2-0.2c-0.6,0-1.1,0.1-1.6,0.3s-1,0.5-1.4,1
		s-0.7,0.9-0.9,1.6S383.1,9.6,383.1,10.4z"/>
	<path d="M404.6,17c-0.7,0-1.3-0.1-1.9-0.2s-1.2-0.4-1.7-0.6s-1-0.6-1.4-1s-0.8-0.8-1.1-1.3s-0.5-1-0.7-1.6s-0.3-1.2-0.3-1.8
		c0-0.6,0.1-1.2,0.3-1.8s0.4-1.1,0.7-1.6s0.7-0.9,1.1-1.3s0.9-0.7,1.4-1s1.1-0.5,1.7-0.6s1.3-0.2,1.9-0.2s1.3,0.1,1.9,0.2
		s1.2,0.3,1.7,0.6s1,0.6,1.4,1s0.8,0.8,1.1,1.3s0.5,1,0.7,1.6s0.3,1.2,0.3,1.8c0,0.7-0.1,1.3-0.3,1.9s-0.4,1.1-0.7,1.6
		s-0.7,0.9-1.1,1.3s-0.9,0.7-1.4,1s-1.1,0.5-1.7,0.6S405.3,17,404.6,17z M404.6,15.9c0.6,0,1.1-0.1,1.6-0.4s0.9-0.7,1.2-1.2
		s0.6-1.1,0.7-1.8s0.2-1.4,0.2-2.2c0-0.8-0.1-1.5-0.2-2.2s-0.4-1.2-0.7-1.7s-0.7-0.8-1.2-1.1s-1-0.4-1.6-0.4c-0.6,0-1.2,0.1-1.6,0.4
		s-0.9,0.6-1.2,1.1s-0.6,1-0.7,1.7s-0.2,1.4-0.2,2.2c0,0.8,0.1,1.5,0.2,2.2s0.4,1.3,0.7,1.8s0.7,0.9,1.2,1.2S404,15.9,404.6,15.9z"
		/>
	<path d="M416.9,4.2h2l7.1,8v-8h1.9v12.7h-1.3l-7.8-8.8v8.6h-1.9V4.2z"/>
	<path d="M444.5,4.2v1.1h-4.3v11.5h-3.1V5.2h-4.3V4.2H444.5z"/>
	<path d="M454,3.9l5.9,12.8h-3.1l-1.6-3.4h-4.9l-1.6,3.4h-2.1l6.1-12.8H454z M450.9,12.1h3.8l-1.9-4L450.9,12.1z"/>
	<path d="M466.3,10.4c0,0.8,0.1,1.5,0.4,2.1s0.6,1.1,1,1.6s0.9,0.7,1.4,1s1.1,0.3,1.6,0.3c0.4,0,0.8-0.1,1.2-0.2s0.7-0.4,1.1-0.6
		s0.6-0.6,0.9-0.9s0.6-0.7,0.8-1.1l1.3,0.9c-0.3,0.4-0.6,0.9-1,1.3s-0.8,0.8-1.3,1.1s-1,0.6-1.6,0.8s-1.2,0.3-1.8,0.3
		c-1.1,0-2.1-0.2-3-0.5s-1.7-0.8-2.3-1.3s-1.2-1.3-1.5-2.1s-0.6-1.7-0.6-2.7c0-0.6,0.1-1.2,0.2-1.8s0.4-1.1,0.7-1.6s0.7-0.9,1.1-1.3
		s0.9-0.7,1.4-1s1.1-0.5,1.8-0.6s1.3-0.2,2-0.2c0.7,0,1.4,0.1,2,0.3s1.1,0.4,1.6,0.7s0.9,0.7,1.3,1.1s0.7,0.9,1,1.4l-1.3,0.9
		c-0.3-0.4-0.5-0.7-0.9-1.1s-0.6-0.6-1-0.9s-0.7-0.4-1.1-0.6s-0.8-0.2-1.2-0.2c-0.6,0-1.1,0.1-1.6,0.3s-1,0.5-1.4,1
		s-0.7,0.9-0.9,1.6S466.3,9.6,466.3,10.4z"/>
	<path d="M492.1,4.2v1.1h-4.3v11.5h-3.1V5.2h-4.3V4.2H492.1z"/>
</g>
</svg>
