<?xml version="1.0" encoding="utf-8"?>
<!-- Generator: Adobe Illustrator 21.0.0, SVG Export Plug-In . SVG Version: 6.00 Build 0)  -->
<svg version="1.0" id="Layer_1" xmlns="http://www.w3.org/2000/svg" xmlns:xlink="http://www.w3.org/1999/xlink" x="0px" y="0px"
	 viewBox="0 0 130.7 12.8" style="enable-background:new 0 0 130.7 12.8;" xml:space="preserve">
<g>
	<path d="M-115.7,0l5.9,12.8h-3.1l-1.6-3.4h-4.9l-1.6,3.4h-2.1L-117,0H-115.7z M-118.8,8.2h3.8l-1.9-4L-118.8,8.2z"/>
	<path d="M-105.6,0.3h5.4c0.7,0,1.4,0.1,2,0.2s1.1,0.4,1.5,0.7s0.8,0.6,1,1s0.4,0.8,0.4,1.3c0,0.3,0,0.6-0.1,0.8s-0.2,0.5-0.3,0.7
		s-0.3,0.4-0.6,0.6s-0.5,0.4-0.9,0.6c0.4,0.1,0.7,0.3,1,0.5s0.6,0.4,0.8,0.7S-95,8-94.9,8.3s0.2,0.7,0.2,1c0,0.5-0.1,1-0.3,1.4
		s-0.5,0.8-1,1.1s-0.9,0.6-1.5,0.7s-1.2,0.3-1.9,0.3h-6.2V0.3z M-102.5,5.7h2c0.3,0,0.6-0.1,0.9-0.2s0.5-0.2,0.6-0.4
		s0.3-0.4,0.4-0.6s0.1-0.5,0.1-0.8c0-0.3-0.1-0.6-0.2-0.9s-0.3-0.5-0.5-0.7s-0.5-0.3-0.9-0.5s-0.8-0.2-1.3-0.2h-1.2V5.7z
		 M-102.5,11.5h1.7c0.5,0,0.9-0.1,1.3-0.2s0.7-0.3,0.9-0.4s0.4-0.4,0.5-0.7S-98,9.7-98,9.4c0-0.4-0.1-0.7-0.2-1s-0.3-0.6-0.5-0.8
		s-0.5-0.4-0.9-0.5s-0.9-0.2-1.4-0.2h-1.6V11.5z"/>
	<path d="M-83,13.1c-0.7,0-1.3-0.1-1.9-0.2s-1.2-0.4-1.7-0.6s-1-0.6-1.4-1s-0.8-0.8-1.1-1.3s-0.5-1-0.7-1.6s-0.3-1.2-0.3-1.8
		c0-0.6,0.1-1.2,0.3-1.8s0.4-1.1,0.7-1.6s0.7-0.9,1.1-1.3s0.9-0.7,1.4-1s1.1-0.5,1.7-0.6S-83.6,0-83,0s1.3,0.1,1.9,0.2
		s1.2,0.3,1.7,0.6s1,0.6,1.4,1s0.8,0.8,1.1,1.3s0.5,1,0.7,1.6s0.3,1.2,0.3,1.8c0,0.7-0.1,1.3-0.3,1.9s-0.4,1.1-0.7,1.6
		s-0.7,0.9-1.1,1.3s-0.9,0.7-1.4,1s-1.1,0.5-1.7,0.6S-82.3,13.1-83,13.1z M-83,12c0.6,0,1.1-0.1,1.6-0.4s0.9-0.7,1.2-1.2
		s0.6-1.1,0.7-1.8s0.2-1.4,0.2-2.2c0-0.8-0.1-1.5-0.2-2.2s-0.4-1.2-0.7-1.7s-0.7-0.8-1.2-1.1s-1-0.4-1.6-0.4c-0.6,0-1.2,0.1-1.6,0.4
		s-0.9,0.6-1.2,1.1s-0.6,1-0.7,1.7s-0.2,1.4-0.2,2.2c0,0.8,0.1,1.5,0.2,2.2s0.4,1.3,0.7,1.8s0.7,0.9,1.2,1.2S-83.6,12-83,12z"/>
	<path d="M-70.7,0.3h3.1v8c0,0.5,0.1,0.9,0.2,1.4s0.4,0.8,0.6,1.1s0.6,0.6,1,0.8s0.8,0.3,1.3,0.3s0.9-0.1,1.3-0.3s0.7-0.4,1-0.8
		s0.5-0.7,0.6-1.1s0.2-0.9,0.2-1.4v-8h1.9v8c0,0.6-0.1,1.3-0.3,1.8s-0.6,1.1-1,1.5s-1.1,0.8-1.8,1s-1.6,0.4-2.6,0.4
		c-0.9,0-1.7-0.1-2.4-0.4s-1.3-0.6-1.8-1s-0.8-0.9-1.1-1.5s-0.4-1.2-0.4-1.8V0.3z"/>
	<path d="M-42.6,0.3v1.1H-47v11.5H-50V1.3h-4.3V0.3H-42.6z"/>
</g>
<g>
	<path d="M11.7,0.3v1.1H7.4v11.5H4.3V1.3H0V0.3H11.7z"/>
	<path d="M16.8,0.3h3.1v12.5h-3.1V0.3z"/>
	<path d="M25.7,0.3h3l4.3,8.6l4.3-8.6h2.9v12.5h-3.1V4.6l-4.1,8.2h-1.2l-4.2-8.3v8.3h-1.9V0.3z"/>
	<path d="M55.4,0.3v1.1h-6.3v4.1h5.2v1.1h-5.2v5h6.3v1.3H46V0.3H55.4z"/>
	<path d="M71.5,0.3v1.1h-4.3v11.5h-3.1V1.3h-4.3V0.3H71.5z"/>
	<path d="M81,0l5.9,12.8h-3.1l-1.6-3.4h-4.9l-1.6,3.4h-2.1L79.7,0H81z M77.9,8.2h3.8l-1.9-4L77.9,8.2z"/>
	<path d="M91.1,0.3h5.4c0.7,0,1.4,0.1,2,0.2s1.1,0.4,1.5,0.7s0.8,0.6,1,1s0.4,0.8,0.4,1.3c0,0.3,0,0.6-0.1,0.8S101.1,4.8,101,5
		s-0.3,0.4-0.6,0.6s-0.5,0.4-0.9,0.6c0.4,0.1,0.7,0.3,1,0.5s0.6,0.4,0.8,0.7s0.4,0.5,0.5,0.9s0.2,0.7,0.2,1c0,0.5-0.1,1-0.3,1.4
		s-0.5,0.8-1,1.1s-0.9,0.6-1.5,0.7s-1.2,0.3-1.9,0.3h-6.2V0.3z M94.2,5.7h2c0.3,0,0.6-0.1,0.9-0.2s0.5-0.2,0.6-0.4s0.3-0.4,0.4-0.6
		s0.1-0.5,0.1-0.8c0-0.3-0.1-0.6-0.2-0.9s-0.3-0.5-0.5-0.7S97,1.7,96.6,1.6s-0.8-0.2-1.3-0.2h-1.2V5.7z M94.2,11.5h1.7
		c0.5,0,0.9-0.1,1.3-0.2s0.7-0.3,0.9-0.4s0.4-0.4,0.5-0.7s0.2-0.5,0.2-0.9c0-0.4-0.1-0.7-0.2-1s-0.3-0.6-0.5-0.8s-0.5-0.4-0.9-0.5
		s-0.9-0.2-1.4-0.2h-1.6V11.5z"/>
	<path d="M107.2,0.3h3.1v11.2h6.4v1.3h-9.5V0.3z"/>
	<path d="M130.7,0.3v1.1h-6.3v4.1h5.2v1.1h-5.2v5h6.3v1.3h-9.3V0.3H130.7z"/>
</g>
<g>
	<path d="M-18.9-3.9h1.4l-6.9,21.7h-1.4L-18.9-3.9z"/>
</g>
<g>
	<path d="M335.9-3.9h1.4l-6.9,21.7h-1.4L335.9-3.9z"/>
</g>
<g>
	<path d="M160.6-3.9h1.4L155,17.8h-1.4L160.6-3.9z"/>
</g>
<g>
	<path d="M186.4,0.3h3.1v11.2h6.4v1.3h-9.5V0.3z"/>
	<path d="M207,13.1c-0.7,0-1.3-0.1-1.9-0.2s-1.2-0.4-1.7-0.6s-1-0.6-1.4-1s-0.8-0.8-1.1-1.3s-0.5-1-0.7-1.6s-0.3-1.2-0.3-1.8
		c0-0.6,0.1-1.2,0.3-1.8s0.4-1.1,0.7-1.6s0.7-0.9,1.1-1.3s0.9-0.7,1.4-1s1.1-0.5,1.7-0.6S206.3,0,207,0s1.3,0.1,1.9,0.2
		s1.2,0.3,1.7,0.6s1,0.6,1.4,1s0.8,0.8,1.1,1.3s0.5,1,0.7,1.6s0.3,1.2,0.3,1.8c0,0.7-0.1,1.3-0.3,1.9s-0.4,1.1-0.7,1.6
		s-0.7,0.9-1.1,1.3s-0.9,0.7-1.4,1s-1.1,0.5-1.7,0.6S207.7,13.1,207,13.1z M207,12c0.6,0,1.1-0.1,1.6-0.4s0.9-0.7,1.2-1.2
		s0.6-1.1,0.7-1.8s0.2-1.4,0.2-2.2c0-0.8-0.1-1.5-0.2-2.2s-0.4-1.2-0.7-1.7s-0.7-0.8-1.2-1.1s-1-0.4-1.6-0.4c-0.6,0-1.2,0.1-1.6,0.4
		s-0.9,0.6-1.2,1.1s-0.6,1-0.7,1.7s-0.2,1.4-0.2,2.2c0,0.8,0.1,1.5,0.2,2.2s0.4,1.3,0.7,1.8s0.7,0.9,1.2,1.2S206.4,12,207,12z"/>
	<path d="M222.2,6.5c0,0.8,0.1,1.5,0.4,2.1s0.6,1.1,1,1.6s0.9,0.7,1.4,1s1.1,0.3,1.6,0.3c0.4,0,0.8-0.1,1.2-0.2s0.7-0.4,1.1-0.6
		s0.6-0.6,0.9-0.9s0.6-0.7,0.8-1.1l1.3,0.9c-0.3,0.4-0.6,0.9-1,1.3s-0.8,0.8-1.3,1.1s-1,0.6-1.6,0.8s-1.2,0.3-1.8,0.3
		c-1.1,0-2.1-0.2-3-0.5s-1.7-0.8-2.3-1.3s-1.2-1.3-1.5-2.1s-0.6-1.7-0.6-2.7c0-0.6,0.1-1.2,0.2-1.8s0.4-1.1,0.7-1.6s0.7-0.9,1.1-1.3
		s0.9-0.7,1.4-1s1.1-0.5,1.8-0.6s1.3-0.2,2-0.2c0.7,0,1.4,0.1,2,0.3s1.1,0.4,1.6,0.7s0.9,0.7,1.3,1.1s0.7,0.9,1,1.4l-1.3,0.9
		c-0.3-0.4-0.5-0.7-0.9-1.1s-0.6-0.6-1-0.9s-0.7-0.4-1.1-0.6s-0.8-0.2-1.2-0.2c-0.6,0-1.1,0.1-1.6,0.3s-1,0.5-1.4,1
		s-0.7,0.9-0.9,1.6S222.2,5.7,222.2,6.5z"/>
	<path d="M243,0l5.9,12.8h-3.1l-1.6-3.4h-4.9l-1.6,3.4h-2.1L241.7,0H243z M239.9,8.2h3.8l-1.9-4L239.9,8.2z"/>
	<path d="M262.7,0.3v1.1h-4.3v11.5h-3.1V1.3H251V0.3H262.7z"/>
	<path d="M267.8,0.3h3.1v12.5h-3.1V0.3z"/>
	<path d="M283.2,13.1c-0.7,0-1.3-0.1-1.9-0.2s-1.2-0.4-1.7-0.6s-1-0.6-1.4-1s-0.8-0.8-1.1-1.3s-0.5-1-0.7-1.6s-0.3-1.2-0.3-1.8
		c0-0.6,0.1-1.2,0.3-1.8s0.4-1.1,0.7-1.6s0.7-0.9,1.1-1.3s0.9-0.7,1.4-1s1.1-0.5,1.7-0.6s1.3-0.2,1.9-0.2s1.3,0.1,1.9,0.2
		s1.2,0.3,1.7,0.6s1,0.6,1.4,1s0.8,0.8,1.1,1.3s0.5,1,0.7,1.6s0.3,1.2,0.3,1.8c0,0.7-0.1,1.3-0.3,1.9s-0.4,1.1-0.7,1.6
		s-0.7,0.9-1.1,1.3s-0.9,0.7-1.4,1s-1.1,0.5-1.7,0.6S283.9,13.1,283.2,13.1z M283.2,12c0.6,0,1.1-0.1,1.6-0.4s0.9-0.7,1.2-1.2
		s0.6-1.1,0.7-1.8s0.2-1.4,0.2-2.2c0-0.8-0.1-1.5-0.2-2.2S286.3,3,286,2.6s-0.7-0.8-1.2-1.1s-1-0.4-1.6-0.4c-0.6,0-1.2,0.1-1.6,0.4
		s-0.9,0.6-1.2,1.1s-0.6,1-0.7,1.7s-0.2,1.4-0.2,2.2c0,0.8,0.1,1.5,0.2,2.2s0.4,1.3,0.7,1.8s0.7,0.9,1.2,1.2S282.6,12,283.2,12z"/>
	<path d="M295.5,0.3h2l7.1,8v-8h1.9V13h-1.3l-7.8-8.8v8.6h-1.9V0.3z"/>
</g>
<g>
	<path d="M357.3,6.5c0,0.8,0.1,1.5,0.4,2.1s0.6,1.1,1,1.6s0.9,0.7,1.4,1s1.1,0.3,1.6,0.3c0.4,0,0.8-0.1,1.2-0.2s0.7-0.4,1.1-0.6
		s0.6-0.6,0.9-0.9s0.6-0.7,0.8-1.1l1.3,0.9c-0.3,0.4-0.6,0.9-1,1.3s-0.8,0.8-1.3,1.1s-1,0.6-1.6,0.8s-1.2,0.3-1.8,0.3
		c-1.1,0-2.1-0.2-3-0.5s-1.7-0.8-2.3-1.3s-1.2-1.3-1.5-2.1s-0.6-1.7-0.6-2.7c0-0.6,0.1-1.2,0.2-1.8s0.4-1.1,0.7-1.6s0.7-0.9,1.1-1.3
		s0.9-0.7,1.4-1s1.1-0.5,1.8-0.6s1.3-0.2,2-0.2c0.7,0,1.4,0.1,2,0.3s1.1,0.4,1.6,0.7s0.9,0.7,1.3,1.1s0.7,0.9,1,1.4l-1.3,0.9
		c-0.3-0.4-0.5-0.7-0.9-1.1s-0.6-0.6-1-0.9s-0.7-0.4-1.1-0.6s-0.8-0.2-1.2-0.2c-0.6,0-1.1,0.1-1.6,0.3s-1,0.5-1.4,1
		s-0.7,0.9-0.9,1.6S357.3,5.7,357.3,6.5z"/>
	<path d="M378.7,13.1c-0.7,0-1.3-0.1-1.9-0.2s-1.2-0.4-1.7-0.6s-1-0.6-1.4-1s-0.8-0.8-1.1-1.3s-0.5-1-0.7-1.6s-0.3-1.2-0.3-1.8
		c0-0.6,0.1-1.2,0.3-1.8s0.4-1.1,0.7-1.6s0.7-0.9,1.1-1.3s0.9-0.7,1.4-1s1.1-0.5,1.7-0.6s1.3-0.2,1.9-0.2s1.3,0.1,1.9,0.2
		s1.2,0.3,1.7,0.6s1,0.6,1.4,1s0.8,0.8,1.1,1.3s0.5,1,0.7,1.6s0.3,1.2,0.3,1.8c0,0.7-0.1,1.3-0.3,1.9s-0.4,1.1-0.7,1.6
		s-0.7,0.9-1.1,1.3s-0.9,0.7-1.4,1s-1.1,0.5-1.7,0.6S379.4,13.1,378.7,13.1z M378.7,12c0.6,0,1.1-0.1,1.6-0.4s0.9-0.7,1.2-1.2
		s0.6-1.1,0.7-1.8s0.2-1.4,0.2-2.2c0-0.8-0.1-1.5-0.2-2.2s-0.4-1.2-0.7-1.7s-0.7-0.8-1.2-1.1s-1-0.4-1.6-0.4c-0.6,0-1.2,0.1-1.6,0.4
		s-0.9,0.6-1.2,1.1s-0.6,1-0.7,1.7S375,5.7,375,6.4c0,0.8,0.1,1.5,0.2,2.2s0.4,1.3,0.7,1.8s0.7,0.9,1.2,1.2S378.1,12,378.7,12z"/>
	<path d="M391,0.3h2l7.1,8v-8h1.9V13h-1.3l-7.8-8.8v8.6H391V0.3z"/>
	<path d="M418.7,0.3v1.1h-4.3v11.5h-3.1V1.3h-4.3V0.3H418.7z"/>
	<path d="M428.2,0l5.9,12.8h-3.1l-1.6-3.4h-4.9l-1.6,3.4h-2.1L426.9,0H428.2z M425,8.2h3.8l-1.9-4L425,8.2z"/>
	<path d="M440.4,6.5c0,0.8,0.1,1.5,0.4,2.1s0.6,1.1,1,1.6s0.9,0.7,1.4,1s1.1,0.3,1.6,0.3c0.4,0,0.8-0.1,1.2-0.2s0.7-0.4,1.1-0.6
		s0.6-0.6,0.9-0.9s0.6-0.7,0.8-1.1l1.3,0.9c-0.3,0.4-0.6,0.9-1,1.3s-0.8,0.8-1.3,1.1s-1,0.6-1.6,0.8s-1.2,0.3-1.8,0.3
		c-1.1,0-2.1-0.2-3-0.5s-1.7-0.8-2.3-1.3s-1.2-1.3-1.5-2.1S437,7.5,437,6.5c0-0.6,0.1-1.2,0.2-1.8s0.4-1.1,0.7-1.6s0.7-0.9,1.1-1.3
		s0.9-0.7,1.4-1s1.1-0.5,1.8-0.6s1.3-0.2,2-0.2c0.7,0,1.4,0.1,2,0.3s1.1,0.4,1.6,0.7s0.9,0.7,1.3,1.1s0.7,0.9,1,1.4l-1.3,0.9
		c-0.3-0.4-0.5-0.7-0.9-1.1s-0.6-0.6-1-0.9s-0.7-0.4-1.1-0.6s-0.8-0.2-1.2-0.2c-0.6,0-1.1,0.1-1.6,0.3s-1,0.5-1.4,1
		s-0.7,0.9-0.9,1.6S440.4,5.7,440.4,6.5z"/>
	<path d="M466.3,0.3v1.1h-4.3v11.5h-3.1V1.3h-4.3V0.3H466.3z"/>
</g>
</svg>
